<mxfile host="65bd71144e">
    <diagram id="Zvwa-TkKZgZZppKq0Jnh" name="Page-1">
        <mxGraphModel dx="1130" dy="792" grid="1" gridSize="10" guides="1" tooltips="1" connect="1" arrows="1" fold="1" page="1" pageScale="1" pageWidth="850" pageHeight="1100" math="0" shadow="0">
            <root>
                <mxCell id="0"/>
                <mxCell id="1" parent="0"/>
                <mxCell id="2" value="Full Stack Web Development" style="rounded=1;whiteSpace=wrap;html=1;fontFamily=Helvetica;fontStyle=1;fontSize=16;" parent="1" vertex="1">
                    <mxGeometry x="305" y="40" width="240" height="60" as="geometry"/>
                </mxCell>
                <mxCell id="3" value="Front End" style="ellipse;whiteSpace=wrap;html=1;aspect=fixed;" vertex="1" parent="1">
                    <mxGeometry x="180" y="140" width="80" height="80" as="geometry"/>
                </mxCell>
                <mxCell id="4" value="Back End" style="ellipse;whiteSpace=wrap;html=1;aspect=fixed;" vertex="1" parent="1">
                    <mxGeometry x="320" y="140" width="80" height="80" as="geometry"/>
                </mxCell>
                <mxCell id="6" value="DevOps" style="ellipse;whiteSpace=wrap;html=1;aspect=fixed;" vertex="1" parent="1">
                    <mxGeometry x="600" y="140" width="80" height="80" as="geometry"/>
                </mxCell>
                <mxCell id="19" value="android" style="shape=image;verticalLabelPosition=bottom;labelBackgroundColor=default;verticalAlign=top;aspect=fixed;imageAspect=0;image=data:image/svg+xml,PHN2ZyB4bWxucz0iaHR0cDovL3d3dy53My5vcmcvMjAwMC9zdmciIHZpZXdCb3g9IjAgMCAxMjggMTI4Ij48cGF0aCBkPSJNMjEuMDEyIDkxLjEyNWMtNS41MzguMDAzLTEwLjAzOC00LjUwMy0xMC4wMzktMTAuMDRsLS4wMDItMzAuNzM5Yy0uMDAyLTUuNTMyIDQuNDk3LTEwLjAzNyAxMC4wMjgtMTAuMDM4IDIuNjg5LS4wMDIgNS4yMDcgMS4wNDEgNy4xMDUgMi45MzdzMi45NDIgNC40MTggMi45NDQgNy4wOTlsLS4wMDMgMzAuNzRhOS45MjQgOS45MjQgMCAwMS0yLjkzMSA3LjA5NCA5Ljk2MiA5Ljk2MiAwIDAxLTcuMTAyIDIuOTQ3bS0uMDA4LTQ4LjEyYy00LjA1My0uMDAyLTcuMzM4IDMuMjkxLTcuMzM5IDcuMzQxbC4wMDUgMzAuNzM2YTcuMzQ3IDcuMzQ3IDAgMDA3LjM0MSA3LjM0OCA3LjMzOCA3LjMzOCAwIDAwNy4zMzktNy4zNDdWNTAuMzQyYTcuMzQ1IDcuMzQ1IDAgMDAtNy4zNDYtNy4zMzciIGZpbGw9IiNmZmYiLz48cGF0aCBkPSJNOTkuNzQyIDQ0LjUyN2wtMi42OTgtLjAwMS02Ni4xMTkuMDA5LTIuNjk5LjAwMS0uMDAyLTIuNjk5Yy0uMDA2LTExLjA4IDYuMDMtMjEuMzg1IDE1LjkxNy0yNy40NzNsLTMuODQ0LTcuMDE3Yy0uNDctLjgyMi0uNTg4LTEuODYzLS4zMTQtMi44MTVhMy43MzIgMy43MzIgMCAwMTEuODE0LTIuMjM5IDMuNjA1IDMuNjA1IDAgMDExLjc1OS0uNDQ3YzEuMzYyIDAgMi42MDkuNzM5IDMuMjY3IDEuOTMzbDQuMDIzIDcuMzI5YTM3Ljg0MiAzNy44NDIgMCAwMTEzLjA5OS0yLjMwNWM0LjYwNi0uMDAyIDkuMDIzLjc3NyAxMy4yMDQgMi4zMTFsNC4wMTctNy4zNDFhMy43MTEgMy43MTEgMCAwMTMuMjYzLTEuOTMyIDMuNzEyIDMuNzEyIDAgMDExLjc2MS40MzhBMy43MDYgMy43MDYgMCAwMTg4IDQuNTI0YTMuNjkgMy42OSAwIDAxLS4zMTggMi44MzJsLTMuODQyIDcuMDEzYzkuODcxIDYuMTAxIDE1LjkgMTYuMzk4IDE1Ljg5OSAyNy40NTlsLjAwMyAyLjY5OXpNODAuMTk2IDE1LjQwM2w1LjEyMy05LjM1NWExLjAxOSAxLjAxOSAwIDEwLTEuNzgzLS45ODFsLTUuMTc2IDkuNDVjLTQuMzU0LTEuOTM0LTkuMjI5LTMuMDIxLTE0LjM4Mi0zLjAxNi01LjE0Mi0uMDA1LTEwLjAwOCAxLjA3OC0xNC4zNDkgMy4wMDVsLTUuMTgxLTkuNDI5YTEuMDA5IDEuMDA5IDAgMDAtMS4zNzktLjQwNWMtLjQ5Ny4yNjYtLjY4Ljg5MS0uNDAzIDEuMzc5bDUuMTI1IDkuMzQ4Yy0xMC4wNyA1LjE5NC0xNi44NzQgMTUuMDg0LTE2Ljg2OCAyNi40MzlsNjYuMTE4LS4wMDhjLjAwMy0xMS4zNTEtNi43ODktMjEuMjIxLTE2Ljg0NS0yNi40MjdNNDguOTQgMjkuODZhMi43NzIgMi43NzIgMCAwMS4wMDMtNS41NDUgMi43OCAyLjc4IDAgMDEyLjc3NSAyLjc3NCAyLjc3NSAyLjc3NSAwIDAxLTIuNzc4IDIuNzcxbTMwLjEwNy0uMDA2YTIuNzY3IDIuNzY3IDAgMDEtMi43NzItMi43NzEgMi43ODggMi43ODggMCAwMTIuNzczLTIuNzc4IDIuNzkgMi43OSAwIDAxMi43NjcgMi43NzkgMi43NjkgMi43NjkgMCAwMS0yLjc2OCAyLjc3bS0yNy4zMzYgOTYuMzA1Yy01LjUzMy0uMDAxLTEwLjAzNi00LjUwMS0xMC4wMzctMTAuMDM4bC0uMDAyLTEzLjU2Ny0yLjYzOC4wMDNhMTAuNDUzIDEwLjQ1MyAwIDAxLTcuNDQ4LTMuMDgyIDEwLjQzNyAxMC40MzcgMCAwMS0zLjA4My03LjQ1MmwtLjAxLTQ3LjYyN3YtMi43MDFoMi42OTlsNjUuNjIzLS4wMSAyLjctLjAwMnYyLjY5OWwuMDA3IDQ3LjYzM2MuMDAxIDUuODA5LTQuNzI1IDEwLjUzNi0xMC41MzIgMTAuNTM1bC0yLjY1NC4wMDIuMDAzIDEzLjU2MmMwIDUuNTM0LTQuNTAyIDEwLjAzOS0xMC4wMzMgMTAuMDM5YTkuOTMzIDkuOTMzIDAgMDEtNy4wOTgtMi45MzcgOS45NTIgOS45NTIgMCAwMS0yLjk0Ny03LjA5NnYtMTMuNTY4SDYxLjc1djEzLjU2NWMtLjAwMiA1LjUzNS00LjUwMyAxMC4wNDMtMTAuMDM5IDEwLjA0MiIgZmlsbD0iI2ZmZiIvPjxwYXRoIGQ9Ik0zMS4yMDUgOTIuMDIyYTcuODIgNy44MiAwIDAwNy44MzEgNy44MzdoNS4zMzNsLjAwNiAxNi4yNjRjLS4wMDEgNC4wNSAzLjI4OSA3LjM0MSA3LjMzNSA3LjM0MmE3LjM0MiA3LjM0MiAwIDAwNy4zMzgtNy4zNDhsLjAwMS0xNi4yNTkgOS45MDktLjAwMy0uMDAxIDE2LjI2M2MuMDA0IDQuMDUxIDMuMjk4IDcuMzQ2IDcuMzQzIDcuMzM4IDQuMDU2LjAwMyA3LjM0NC0zLjI5MiA3LjM0My03LjM0NGwtLjAwNS0xNi4yNTkgNS4zNTMtLjAwMWM0LjMxOS4wMDEgNy44MzItMy41MDggNy44MzItNy44MzdsLS4wMDktNDcuNjM1LTY1LjYyMS4wMTIuMDEyIDQ3LjYzem03NS43OTEtLjkxYy01LjUzNi4wMDEtMTAuMDM5LTQuNDk4LTEwLjAzOC0xMC4wMzZsLS4wMDgtMzAuNzM4Yy4wMDItNS41MzcgNC40OTgtMTAuMDQxIDEwLjAzMS0xMC4wNDEgNS41NC0uMDAxIDEwLjA0NiA0LjUwMiAxMC4wNDUgMTAuMDM4bC4wMDMgMzAuNzM2Yy4wMDEgNS41MzQtNC40OTggMTAuMDQyLTEwLjAzMyAxMC4wNDFtLS4wMS00OC4xMTZjLTQuMDUzLS4wMDQtNy4zMzcgMy4yODctNy4zMzcgNy4zNDJsLjAwMyAzMC43MzdhNy4zMzYgNy4zMzYgMCAwMDcuMzQyIDcuMzQgNy4zMzggNy4zMzggMCAwMDcuMzM4LTcuMzQzbC0uMDA4LTMwLjczNmE3LjMzNSA3LjMzNSAwIDAwLTcuMzM4LTcuMzQiIGZpbGw9IiNmZmYiLz48cGF0aCBkPSJNMjEuMDA0IDQzLjAwNWMtNC4wNTMtLjAwMi03LjMzOCAzLjI5MS03LjMzOSA3LjM0MWwuMDA1IDMwLjczNmE3LjMzOCA3LjMzOCAwIDAwNy4zNDIgNy4zNDMgNy4zMyA3LjMzIDAgMDA3LjMzOC03LjM0MlY1MC4zNDJhNy4zNDUgNy4zNDUgMCAwMC03LjM0Ni03LjMzN201OS4xOTItMjcuNjAybDUuMTIzLTkuMzU1YTEuMDIzIDEuMDIzIDAgMDAtLjQwMS0xLjM4OCAxLjAyMiAxLjAyMiAwIDAwLTEuMzgyLjQwN2wtNS4xNzUgOS40NTNjLTQuMzU0LTEuOTM4LTkuMjI3LTMuMDI0LTE0LjM4My0zLjAxOS01LjE0Mi0uMDA1LTEwLjAxMyAxLjA3OC0xNC4zNDkgMy4wMDVsLTUuMTgxLTkuNDI5YTEuMDEgMS4wMSAwIDAwLTEuMzc4LS40MDYgMS4wMDcgMS4wMDcgMCAwMC0uNDA0IDEuMzhsNS4xMjUgOS4zNDljLTEwLjA3IDUuMTkzLTE2Ljg3NCAxNS4wODMtMTYuODY4IDI2LjQzOGw2Ni4xMTgtLjAwOGMuMDAzLTExLjM1MS02Ljc4OS0yMS4yMjEtMTYuODQ1LTI2LjQyN000OC45NCAyOS44NmEyLjc3MiAyLjc3MiAwIDAxLjAwMy01LjU0NSAyLjc4IDIuNzggMCAwMTIuNzc1IDIuNzc0IDIuNzc1IDIuNzc1IDAgMDEtMi43NzggMi43NzFtMzAuMTA3LS4wMDZhMi43NyAyLjc3IDAgMDEtMi43NzItMi43NzEgMi43OTMgMi43OTMgMCAwMTIuNzczLTIuNzc4IDIuNzkgMi43OSAwIDAxMi43NjcgMi43NzkgMi43NjcgMi43NjcgMCAwMS0yLjc2OCAyLjc3TTMxLjE5MyA0NC4zOTJsLjAxMSA0Ny42MzVhNy44MjIgNy44MjIgMCAwMDcuODMyIDcuODMxbDUuMzMzLjAwMi4wMDYgMTYuMjY0Yy0uMDAxIDQuMDUgMy4yOTEgNy4zNDIgNy4zMzUgNy4zNDIgNC4wNTYgMCA3LjM0Mi0zLjI5NSA3LjM0My03LjM0N2wtLjAwNC0xNi4yNiA5LjkwOS0uMDAzLjAwNCAxNi4yNjNjMCA0LjA0NyAzLjI5MyA3LjM0NiA3LjMzOCA3LjMzOCA0LjA1Ni4wMDMgNy4zNDQtMy4yOTIgNy4zNDMtNy4zNDRsLS4wMDUtMTYuMjU5IDUuMzUyLS4wMDRhNy44MzUgNy44MzUgMCAwMDcuODM2LTcuODM0bC0uMDA5LTQ3LjYzNS02NS42MjQuMDExem04My4xMzQgNS45NDNhNy4zMzggNy4zMzggMCAwMC03LjM0MS03LjMzOWMtNC4wNTMtLjAwNC03LjMzNyAzLjI4Ny03LjMzNyA3LjM0MmwuMDA2IDMwLjczOGE3LjMzNCA3LjMzNCAwIDAwNy4zMzkgNy4zMzkgNy4zMzcgNy4zMzcgMCAwMDcuMzM4LTcuMzQzbC0uMDA1LTMwLjczN3oiIGZpbGw9IiNBNEM0MzkiLz48L3N2Zz4=;" vertex="1" parent="1">
                    <mxGeometry x="48" y="240" width="64" height="64" as="geometry"/>
                </mxCell>
                <mxCell id="21" value="apple" style="shape=image;verticalLabelPosition=bottom;labelBackgroundColor=default;verticalAlign=top;aspect=fixed;imageAspect=0;image=data:image/svg+xml,PHN2ZyB4bWxucz0iaHR0cDovL3d3dy53My5vcmcvMjAwMC9zdmciIHZpZXdCb3g9IjAgMCAxMjggMTI4Ij48cGF0aCBkPSJNOTcuOTA1IDY3Ljg4NWMuMTc0IDE4LjggMTYuNDk0IDI1LjA1NyAxNi42NzQgMjUuMTM3LS4xMzguNDQtMi42MDcgOC45MTYtOC41OTcgMTcuNjY5LTUuMTc4IDcuNTY4LTEwLjU1MyAxNS4xMDgtMTkuMDE4IDE1LjI2Ni04LjMxOC4xNTItMTAuOTkzLTQuOTM0LTIwLjUwNC00LjkzNC05LjUwOCAwLTEyLjQ3OSA0Ljc3Ni0yMC4zNTQgNS4wODYtOC4xNzIuMzEtMTQuMzk1LTguMTg1LTE5LjYxNi0xNS43MjRDMTUuODIyIDk0Ljk2MSA3LjY2OSA2Ni44IDE4LjYxNiA0Ny43OTFjNS40MzgtOS40NCAxNS4xNTgtMTUuNDE3IDI1LjcwNy0xNS41NzEgOC4wMjQtLjE1MyAxNS41OTggNS4zOTggMjAuNTAzIDUuMzk4IDQuOTAyIDAgMTQuMTA2LTYuNjc2IDIzLjc4Mi01LjY5NiA0LjA1MS4xNjkgMTUuNDIxIDEuNjM2IDIyLjcyMiAxMi4zMjQtLjU4Ny4zNjUtMTMuNTY2IDcuOTIxLTEzLjQyNSAyMy42MzlNODIuMjcyIDIxLjcxOWM0LjMzOC01LjI1MSA3LjI1OC0xMi41NjMgNi40NjItMTkuODM2LTYuMjU0LjI1MS0xMy44MTYgNC4xNjctMTguMzAxIDkuNDE2LTQuMDIgNC42NDctNy41NCAxMi4wODctNi41OTEgMTkuMjE2IDYuOTcxLjU0IDE0LjA5MS0zLjU0MiAxOC40My04Ljc5NiIvPjwvc3ZnPg==;" vertex="1" parent="1">
                    <mxGeometry x="48" y="340" width="64" height="64" as="geometry"/>
                </mxCell>
                <mxCell id="25" value="azure" style="shape=image;verticalLabelPosition=bottom;labelBackgroundColor=default;verticalAlign=top;aspect=fixed;imageAspect=0;image=data:image/svg+xml,PHN2ZyB4bWxucz0iaHR0cDovL3d3dy53My5vcmcvMjAwMC9zdmciIHZpZXdCb3g9IjAgMCAxMjggMTI4Ij48ZGVmcz48bGluZWFyR3JhZGllbnQgZ3JhZGllbnRVbml0cz0idXNlclNwYWNlT25Vc2UiIHkyPSIxMzQuNDIzIiB4Mj0iMTguNjY3IiB5MT0iOS42MDIiIHgxPSI2MC45MTkiIGlkPSJhenVyZS1vcmlnaW5hbC1hIj48c3RvcCBzdG9wLWNvbG9yPSIjMTE0QThCIi8+PHN0b3Agc3RvcC1jb2xvcj0iIzA2NjlCQyIgb2Zmc2V0PSIxIi8+PC9saW5lYXJHcmFkaWVudD48bGluZWFyR3JhZGllbnQgZ3JhZGllbnRVbml0cz0idXNlclNwYWNlT25Vc2UiIHkyPSI3MS4wNzYiIHgyPSI2NC4zNDQiIHkxPSI2Ny43NzIiIHgxPSI3NC4xMTciIGlkPSJhenVyZS1vcmlnaW5hbC1iIj48c3RvcCBzdG9wLW9wYWNpdHk9Ii4zIi8+PHN0b3Agc3RvcC1vcGFjaXR5PSIuMiIgb2Zmc2V0PSIuMDcxIi8+PHN0b3Agc3RvcC1vcGFjaXR5PSIuMSIgb2Zmc2V0PSIuMzIxIi8+PHN0b3Agc3RvcC1vcGFjaXR5PSIuMDUiIG9mZnNldD0iLjYyMyIvPjxzdG9wIHN0b3Atb3BhY2l0eT0iMCIgb2Zmc2V0PSIxIi8+PC9saW5lYXJHcmFkaWVudD48bGluZWFyR3JhZGllbnQgZ3JhZGllbnRVbml0cz0idXNlclNwYWNlT25Vc2UiIHkyPSIxMjkuNTI1IiB4Mj0iMTE1LjEyMiIgeTE9IjUuOTYxIiB4MT0iNjguNzQyIiBpZD0iYXp1cmUtb3JpZ2luYWwtYyI+PHN0b3Agc3RvcC1jb2xvcj0iIzNDQ0JGNCIvPjxzdG9wIHN0b3AtY29sb3I9IiMyODkyREYiIG9mZnNldD0iMSIvPjwvbGluZWFyR3JhZGllbnQ+PC9kZWZzPjxwYXRoIHRyYW5zZm9ybT0idHJhbnNsYXRlKC41ODcgNC40NjgpIHNjYWxlKC45MTkwNCkiIGZpbGw9InVybCgjYXp1cmUtb3JpZ2luYWwtYSkiIGQ9Ik00Ni4wOS4wMDJoNDAuNjg1TDQ0LjU0MSAxMjUuMTM3YTYuNDg1IDYuNDg1IDAgMDEtNi4xNDYgNC40MTNINi43MzNhNi40ODIgNi40ODIgMCAwMS01LjI2Mi0yLjY5OSA2LjQ3NCA2LjQ3NCAwIDAxLS44NzYtNS44NDhMMzkuOTQ0IDQuNDE0QTYuNDg4IDYuNDg4IDAgMDE0Ni4wOSAweiIvPjxwYXRoIGZpbGw9IiMwMDc4ZDQiIGQ9Ik05Ny4yOCA4MS42MDdIMzcuOTg3YTIuNzQzIDIuNzQzIDAgMDAtMS44NzQgNC43NTFsMzguMSAzNS41NjJhNS45OTEgNS45OTEgMCAwMDQuMDg3IDEuNjFoMzMuNTc0eiIvPjxwYXRoIHRyYW5zZm9ybT0idHJhbnNsYXRlKC41ODcgNC40NjgpIHNjYWxlKC45MTkwNCkiIGZpbGw9InVybCgjYXp1cmUtb3JpZ2luYWwtYikiIGQ9Ik00Ni4wOS4wMDJBNi40MzQgNi40MzQgMCAwMDM5LjkzIDQuNUwuNjQ0IDEyMC44OTdhNi40NjkgNi40NjkgMCAwMDYuMTA2IDguNjUzaDMyLjQ4YTYuOTQyIDYuOTQyIDAgMDA1LjMyOC00LjUzMWw3LjgzNC0yMy4wODkgMjcuOTg1IDI2LjEwMWE2LjYxOCA2LjYxOCAwIDAwNC4xNjUgMS41MTloMzYuMzk2bC0xNS45NjMtNDUuNjE2LTQ2LjUzMy4wMTFMODYuOTIyLjAwMnoiLz48cGF0aCB0cmFuc2Zvcm09InRyYW5zbGF0ZSguNTg3IDQuNDY4KSBzY2FsZSguOTE5MDQpIiBmaWxsPSJ1cmwoI2F6dXJlLW9yaWdpbmFsLWMpIiBkPSJNOTguMDU1IDQuNDA4QTYuNDc2IDYuNDc2IDAgMDA5MS45MTcuMDAySDQ2LjU3NWE2LjQ3OCA2LjQ3OCAwIDAxNi4xMzcgNC40MDZsMzkuMzUgMTE2LjU5NGE2LjQ3NiA2LjQ3NiAwIDAxLTYuMTM3IDguNTVoNDUuMzQ0YTYuNDggNi40OCAwIDAwNi4xMzYtOC41NXoiLz48L3N2Zz4=;" vertex="1" parent="1">
                    <mxGeometry x="608" y="240" width="64" height="64" as="geometry"/>
                </mxCell>
                <mxCell id="28" value="csharp" style="shape=image;verticalLabelPosition=bottom;labelBackgroundColor=default;verticalAlign=top;aspect=fixed;imageAspect=0;image=data:image/svg+xml,PHN2ZyB4bWxucz0iaHR0cDovL3d3dy53My5vcmcvMjAwMC9zdmciIHZpZXdCb3g9IjAgMCAxMjggMTI4Ij48cGF0aCBkPSJNMTE1LjQgMzAuN0w2Ny4xIDIuOWMtLjgtLjUtMS45LS43LTMuMS0uNy0xLjIgMC0yLjMuMy0zLjEuN2wtNDggMjcuOWMtMS43IDEtMi45IDMuNS0yLjkgNS40djU1LjdjMCAxLjEuMiAyLjQgMSAzLjVsMTA2LjgtNjJjLS42LTEuMi0xLjUtMi4xLTIuNC0yLjd6IiBmaWxsPSIjOUI0Rjk2Ii8+PHBhdGggZD0iTTEwLjcgOTUuM2MuNS44IDEuMiAxLjUgMS45IDEuOWw0OC4yIDI3LjljLjguNSAxLjkuNyAzLjEuNyAxLjIgMCAyLjMtLjMgMy4xLS43bDQ4LTI3LjljMS43LTEgMi45LTMuNSAyLjktNS40VjM2LjFjMC0uOS0uMS0xLjktLjYtMi44bC0xMDYuNiA2MnoiIGZpbGw9IiM2ODIxN0EiLz48cGF0aCBkPSJNODUuMyA3Ni4xQzgxLjEgODMuNSA3My4xIDg4LjUgNjQgODguNWMtMTMuNSAwLTI0LjUtMTEtMjQuNS0yNC41czExLTI0LjUgMjQuNS0yNC41YzkuMSAwIDE3LjEgNSAyMS4zIDEyLjVsMTMtNy41Yy02LjgtMTEuOS0xOS42LTIwLTM0LjMtMjAtMjEuOCAwLTM5LjUgMTcuNy0zOS41IDM5LjVzMTcuNyAzOS41IDM5LjUgMzkuNWMxNC42IDAgMjcuNC04IDM0LjItMTkuOGwtMTIuOS03LjZ6TTk3IDY2LjJsLjktNC4zaC00LjJ2LTQuN2g1LjFMMTAwIDUxaDQuOWwtMS4yIDYuMWgzLjhsMS4yLTYuMWg0LjhsLTEuMiA2LjFoMi40djQuN2gtMy4zbC0uOSA0LjNoNC4ydjQuN2gtNS4xbC0xLjIgNmgtNC45bDEuMi02aC0zLjhsLTEuMiA2aC00LjhsMS4yLTZoLTIuNHYtNC43SDk3em00LjggMGgzLjhsLjktNC4zaC0zLjhsLS45IDQuM3oiIGZpbGw9IiNmZmYiLz48L3N2Zz4=;" vertex="1" parent="1">
                    <mxGeometry x="328" y="340" width="64" height="64" as="geometry"/>
                </mxCell>
                <mxCell id="29" value="css3" style="shape=image;verticalLabelPosition=bottom;labelBackgroundColor=default;verticalAlign=top;aspect=fixed;imageAspect=0;image=data:image/svg+xml,PHN2ZyB4bWxucz0iaHR0cDovL3d3dy53My5vcmcvMjAwMC9zdmciIHZpZXdCb3g9IjAgMCAxMjggMTI4Ij48cGF0aCBkPSJNMTguODE0IDExNC4xMjNMOC43NiAxLjM1MmgxMTAuNDhsLTEwLjA2NCAxMTIuNzU0LTQ1LjI0MyAxMi41NDMtNDUuMTE5LTEyLjUyNnoiIGZpbGw9IiMxNTcyQjYiLz48cGF0aCBkPSJNNjQuMDAxIDExNy4wNjJsMzYuNTU5LTEwLjEzNiA4LjYwMS05Ni4zNTRoLTQ1LjE2djEwNi40OXoiIGZpbGw9IiMzM0E5REMiLz48cGF0aCBkPSJNNjQuMDAxIDUxLjQyOWgxOC4zMDJsMS4yNjQtMTQuMTYzSDY0LjAwMVYyMy40MzVoMzQuNjgybC0uMzMyIDMuNzExLTMuNCAzOC4xMTRoLTMwLjk1VjUxLjQyOXoiIGZpbGw9IiNmZmYiLz48cGF0aCBkPSJNNjQuMDgzIDg3LjM0OWwtLjA2MS4wMTgtMTUuNDAzLTQuMTU5LS45ODUtMTEuMDMxSDMzLjc1MmwxLjkzNyAyMS43MTcgMjguMzMxIDcuODYzLjA2My0uMDE4di0xNC4zOXoiIGZpbGw9IiNFQkVCRUIiLz48cGF0aCBkPSJNODEuMTI3IDY0LjY3NWwtMS42NjYgMTguNTIyLTE1LjQyNiA0LjE2NHYxNC4zOWwyOC4zNTQtNy44NTguMjA4LTIuMzM3IDIuNDA2LTI2Ljg4MUg4MS4xMjd6IiBmaWxsPSIjZmZmIi8+PHBhdGggZD0iTTY0LjA0OCAyMy40MzV2MTMuODMxSDMwLjY0bC0uMjc3LTMuMTA4LS42My03LjAxMi0uMzMxLTMuNzExaDM0LjY0NnptLS4wNDcgMjcuOTk2djEzLjgzMUg0OC43OTJsLS4yNzctMy4xMDgtLjYzMS03LjAxMi0uMzMtMy43MTFoMTYuNDQ3eiIgZmlsbD0iI0VCRUJFQiIvPjwvc3ZnPg==;" vertex="1" parent="1">
                    <mxGeometry x="188" y="340" width="64" height="64" as="geometry"/>
                </mxCell>
                <mxCell id="32" value="dotnet core" style="shape=image;verticalLabelPosition=bottom;labelBackgroundColor=default;verticalAlign=top;aspect=fixed;imageAspect=0;image=data:image/svg+xml,PHN2ZyB4bWxucz0iaHR0cDovL3d3dy53My5vcmcvMjAwMC9zdmciIHZpZXdCb3g9IjAgMCAxMjggMTI4Ij48ZyBmaWxsPSIjNjIzNjk3Ij48cGF0aCBkPSJNNjEuMTk1IDBoNC45NTNjMTIuOTE4LjUzNSAyNS42ODggNC44OSAzNi4wNDMgMTIuNjc2IDkuODA5IDcuMjg5IDE3LjQ3MyAxNy40MzcgMjEuNzI3IDI4LjkwNiAyLjQ0MSA2LjM4NyAzLjY2NCAxMy4xOCA0LjA4MiAxOS45OTJ2NC4yMTFjLS40MTQgMTEuMjkzLTMuNjY0IDIyLjUyLTkuNzMgMzIuMDgyLTYuODAxIDEwLjg5NS0xNi45MjIgMTkuNzMtMjguNzI3IDI0LjgyOEE2NC4zOTkgNjQuMzk5IDAgMDE2NS4wODIgMTI4aC0yLjE0NGMtMTEuNzM1LS4xOTEtMjMuNDEtMy42Ni0zMy4yOTctOS45OTItMTEuMTk2LTcuMTEzLTIwLjExNC0xNy43ODUtMjUuMDI4LTMwLjExN0MxLjg5MSA4MS4xOS40NDEgNzQuMDIgMCA2Ni44MTJ2LTQuOTU3Yy41MDQtMTQuMzkgNS45NTMtMjguNjA5IDE1LjQxLTM5LjQ5NkMyMy4xNjggMTMuMzEgMzMuNSA2LjQ4IDQ0Ljg4NyAyLjkzNyA1MC4xNzIgMS4yNyA1NS42NzYuNDEgNjEuMTk1IDBNMjUuMTkxIDM3LjUyM2MtLjAzIDEyLjE1My0uMDExIDI0LjMwNS0uMDExIDM2LjQ1NCAxLjQzLjAxMSAyLjg2LjAxMSA0LjI5My4wMTEtLjA3NS0xMC40MzMuMTAxLTIwLjg2My0uMTA2LTMxLjI5My40OC45MDcuOTE4IDEuODQgMS40NjUgMi43MDdDMzcuMDM1IDU0LjkxIDQzLjEwNSA2NC41IDQ5LjMwOSA3NGMxLjczOC0uMDIzIDMuNDc2LS4wMjMgNS4yMTQuMDA0LS4wMDMtMTIuMTYtLjAwNy0yNC4zMi4wMDQtMzYuNDhhMzA4LjA3NiAzMDguMDc2IDAgMDAtNC4yNS0uMDEyYy4wNzUgMTAuMzItLjEzNiAyMC42NC4xMjUgMzAuOTQ5LTYuNTA3LTEwLjM1Mi0xMy4xMDEtMjAuNjQ1LTE5LjY5NS0zMC45NDVhMzcwLjg1IDM3MC44NSAwIDAwLTUuNTE2LjAwN20zOC44NDQtLjAxMWMtLjEyOSAxMi4xNi0uMDA0IDI0LjMyLS4wNDcgMzYuNDc2IDYuNDY5LS4wMTUgMTIuOTM4LjAyNCAxOS40MS0uMDJhODMuMzYgODMuMzYgMCAwMS4wMjQtMy45NTJjLTUuMDEyLS4wMTYtMTAuMDI3LjAwNy0xNS4wNDMtLjAyLS4wNzQtNC4yMS0uMDA0LTguNDI2LS4wNC0xMi42MzcgNC4zOTUtLjA3OCA4Ljc5LjAxMiAxMy4xOC0uMDQ3LS4wMTEtMS4yNzctLjAxMS0yLjU1NC0uMDE5LTMuODMyLTQuMzg3LjE0MS04Ljc3My0uMDU0LTEzLjE2NC4wMTIuMDEyLTQuMDIzLjAyLTguMDUuMDItMTIuMDc4IDQuNjk5IDAgOS4zOTgtLjAyIDE0LjA5My4wMTItLjAwOC0xLjMwMSAwLTIuNjA2LjAxNi0zLjkwNi02LjE0NS0uMDE2LTEyLjI5LS4wMDgtMTguNDMtLjAwOG0yMi42MDIuMDU0Yy4wMDQgMS4yNjYuMDA0IDIuNTI4LjAwOCAzLjc5IDMuNDg4LS4wNCA2Ljk3Mi4xMDkgMTAuNDYuMDM1LS4wMjMgMTAuODYzLjAwNCAyMS43MTgtLjAxMSAzMi41NzQgMS40Ni4wNDMgMi45My4wMzUgNC4zOS0uMDktLjEyLTUuOTkyLjExOC0xMS45ODgtLjE1Ni0xNy45NzcuMDY3LTIuNjk5LS4wNy01LjM5NC4xMTctOC4wOS4xMDYtMi4xNC0uMjc3LTQuMjc3LS4wMzUtNi40MTcgMy41MTYuMDQ3IDcuMDM1LjAxNSAxMC41NS4wMTVhNTkuNzc0IDU5Ljc3NCAwIDAxLjA3NS0zLjgzMmMtOC40NjktLjEwNS0xNi45MzctLjA5NC0yNS4zOTgtLjAwOE0xMy41NSA2OS4wOTRjLTEuOTc3LjkxLTIuMTA2IDQuMDIzLS4xNDkgNS4wMjcgMS43MiAxLjE4IDQuMzA1LS4zNzEgNC4yMjctMi40MS4xMzMtMi4wMDQtMi4yOS0zLjY4OC00LjA3OC0yLjYxN20yOS4yMyAxNS4yODljLTQuMjc3IDMuNDY5LTQuMjI2IDExLjE5NS41IDE0LjI1IDIuNjY4IDEuNjk1IDYuMTAyIDEuMzQ0IDguOTIyLjIxNS4wMTItLjYyMS4wMjctMS4yMzkuMDUtMS44Ni0yLjY3MSAxLjM5NS02LjQxIDEuNjgtOC42NzUtLjYxLTIuOTY1LTMuMjM3LTIuMjk3LTkuMjY5IDEuNjEzLTExLjQ3NiAyLjIxMS0xLjE2NCA0LjkwNy0uODI0IDcuMDg2LjIzOS0uMDA3LS42Ni0uMDA0LTEuMzIgMC0xLjk4LTMuMDk3LTEuMDk5LTYuOTIyLTEuMDQtOS40OTYgMS4yMjJtMTcuMjA3IDIuNzFjLTEuODkuMjItMy43NTggMS4yMi00LjYzMyAyLjk2Ni0xLjI1MyAyLjQ5Ni0xLjEwOSA1Ljg2Ny44NjQgNy45NiAyLjAzNSAyLjI5NyA1Ljk0NSAyLjMyIDguMTguMjk3IDIuNDI1LTIuMzA4IDIuNjk5LTYuNDY4Ljc1Ny05LjE2NC0xLjE0OC0xLjYyOS0zLjI3My0yLjE4My01LjE2OC0yLjA1OG0xNy44ODcgMi43MjJjLTEuNjYgMi44ODMtMS4zMzIgNy4yNSAxLjU5OCA5LjIxMSAyLjE4MyAxLjIyIDQuOTMzLjgzMiA3LjA3NC0uMzA4LS4wMDQtLjYxNy4wMDQtMS4yMzUuMDMxLTEuODQ4LTEuNjg3IDEuMDctMy45MzcgMS44NTYtNS44MTIuNzc3LTEuMzA5LS43MjItMS43MDQtMi4yNTctMS45MTQtMy42MjUgMi44NzUtLjAzOSA1Ljc0Ni0uMDgyIDguNjI1LS4wNzQtLjA3NS0xLjgyOC0uMTE4LTMuODk0LTEuNDUtNS4zMDgtMi4xOTktMi40My02LjY0NC0xLjY1Ny04LjE1MiAxLjE3NW0tOC40MTQtMi4zMzZ2MTIuMDA4Yy42NTIgMCAxLjMxMiAwIDEuOTczLjAwNC4wMjMtMi4xOTUtLjA0LTQuMzk0LjAyMy02LjU5NC4wMTYtMS4yNy41MjctMi41NTggMS40ODQtMy40MTQuODAxLS42MDUgMS44ODMtLjI3IDIuODAxLS4yNDYtLjAxMi0uNjM2LS4wMi0xLjI3LS4wMjMtMS45MDItMS43OTMtLjM5OC0zLjMzNi42NTItNC4yNDIgMi4xMTctLjAyLS42MzMtLjA0LTEuMjY2LS4wNTEtMS44OTQtLjY1Ni0uMDI0LTEuMzEzLS4wNTEtMS45NjUtLjA3OXptMCAwIi8+PHBhdGggZD0iTTU4Ljc1OCA4OS4yMjNjMS42NTItLjgwNSA0LjAyMy0uNDEgNC45NDUgMS4zIDEuMDUgMS44ODcgMS4wMjcgNC4zODMtLjEzNyA2LjIxMS0xLjUyIDIuMjg2LTUuNTI3IDEuNzg2LTYuNTIzLS43NDItMS4wMDgtMi4yNTgtLjYxNy01LjQ4NCAxLjcxNS02Ljc3em0wIDBNNzkuMDQgOTIuNDE0Yy4wNDYtMS41NzQgMS4xNDQtMy4xMzcgMi43MjYtMy40OC45NzYtLjE2NCAyLjA5Ny4wMDcgMi43NzMuNzkzLjY3Mi43MTQuODEzIDEuNzE0Ljk4IDIuNjQtMi4xNi4wMTItNC4zMi0uMDMxLTYuNDguMDQ3em0wIDAiLz48L2c+PC9zdmc+;" vertex="1" parent="1">
                    <mxGeometry x="328" y="240" width="64" height="64" as="geometry"/>
                </mxCell>
                <mxCell id="33" value="git" style="shape=image;verticalLabelPosition=bottom;labelBackgroundColor=default;verticalAlign=top;aspect=fixed;imageAspect=0;image=data:image/svg+xml,PHN2ZyB4bWxucz0iaHR0cDovL3d3dy53My5vcmcvMjAwMC9zdmciIHZpZXdCb3g9IjAgMCAxMjggMTI4Ij48cGF0aCBkPSJNMTI0LjczNyA1OC4zNzhMNjkuNjIxIDMuMjY0Yy0zLjE3Mi0zLjE3NC04LjMyLTMuMTc0LTExLjQ5NyAwTDQ2LjY4IDE0LjcxbDE0LjUxOCAxNC41MThjMy4zNzUtMS4xMzkgNy4yNDMtLjM3NSA5LjkzMiAyLjMxNCAyLjcwMyAyLjcwNiAzLjQ2MSA2LjYwNyAyLjI5NCA5Ljk5M2wxMy45OTIgMTMuOTkzYzMuMzg1LTEuMTY3IDcuMjkyLS40MTMgOS45OTQgMi4yOTUgMy43OCAzLjc3NyAzLjc4IDkuOSAwIDEzLjY3OWE5LjY3MyA5LjY3MyAwIDAxLTEzLjY4MyAwIDkuNjc3IDkuNjc3IDAgMDEtMi4xMDUtMTAuNTIxTDY4LjU3NCA0Ny45MzNsLS4wMDIgMzQuMzQxYTkuNzA4IDkuNzA4IDAgMDEyLjU1OSAxLjgyOGMzLjc3OCAzLjc3NyAzLjc3OCA5Ljg5OCAwIDEzLjY4My0zLjc3OSAzLjc3Ny05LjkwNCAzLjc3Ny0xMy42NzkgMC0zLjc3OC0zLjc4NC0zLjc3OC05LjkwNSAwLTEzLjY4M2E5LjY1IDkuNjUgMCAwMTMuMTY3LTIuMTFWNDcuMzMzYTkuNTgxIDkuNTgxIDAgMDEtMy4xNjctMi4xMTFjLTIuODYyLTIuODYtMy41NTEtNy4wNi0yLjA4My0xMC41NzZMNDEuMDU2IDIwLjMzMyAzLjI2NCA1OC4xMjNhOC4xMzMgOC4xMzMgMCAwMDAgMTEuNWw1NS4xMTcgNTUuMTE0YzMuMTc0IDMuMTc0IDguMzIgMy4xNzQgMTEuNDk5IDBsNTQuODU4LTU0Ljg1OGE4LjEzNSA4LjEzNSAwIDAwLS4wMDEtMTEuNTAxeiIgZmlsbD0iI0YzNEYyOSIvPjwvc3ZnPg==;" vertex="1" parent="1">
                    <mxGeometry x="748" y="240" width="64" height="64" as="geometry"/>
                </mxCell>
                <mxCell id="34" value="github" style="shape=image;verticalLabelPosition=bottom;labelBackgroundColor=default;verticalAlign=top;aspect=fixed;imageAspect=0;image=data:image/svg+xml,PHN2ZyB4bWxucz0iaHR0cDovL3d3dy53My5vcmcvMjAwMC9zdmciIHZpZXdCb3g9IjAgMCAxMjggMTI4Ij48ZyBmaWxsPSIjMTgxNjE2Ij48cGF0aCBkPSJNNjQgNS4xMDNjLTMzLjM0NyAwLTYwLjM4OCAyNy4wMzUtNjAuMzg4IDYwLjM4OCAwIDI2LjY4MiAxNy4zMDMgNDkuMzE3IDQxLjI5NyA1Ny4zMDMgMy4wMTcuNTYgNC4xMjUtMS4zMSA0LjEyNS0yLjkwNSAwLTEuNDQtLjA1Ni02LjE5Ny0uMDgyLTExLjI0My0xNi44IDMuNjUzLTIwLjM0NS03LjEyNS0yMC4zNDUtNy4xMjUtMi43NDctNi45OC02LjcwNS04LjgzNi02LjcwNS04LjgzNi01LjQ4LTMuNzQ4LjQxMy0zLjY3LjQxMy0zLjY3IDYuMDYzLjQyNSA5LjI1NyA2LjIyMyA5LjI1NyA2LjIyMyA1LjM4NiA5LjIzIDE0LjEyNyA2LjU2MiAxNy41NzMgNS4wMi41NDItMy45MDMgMi4xMDctNi41NjggMy44MzQtOC4wNzYtMTMuNDEzLTEuNTI1LTI3LjUxNC02LjcwNC0yNy41MTQtMjkuODQzIDAtNi41OTMgMi4zNi0xMS45OCA2LjIyMy0xNi4yMS0uNjI4LTEuNTItMi42OTUtNy42NjIuNTg0LTE1Ljk4IDAgMCA1LjA3LTEuNjIzIDE2LjYxIDYuMTlDNTMuNyAzNSA1OC44NjcgMzQuMzI3IDY0IDM0LjMwNGM1LjEzLjAyMyAxMC4zLjY5NCAxNS4xMjcgMi4wMzMgMTEuNTI2LTcuODEzIDE2LjU5LTYuMTkgMTYuNTktNi4xOSAzLjI4NyA4LjMxNyAxLjIyIDE0LjQ2LjU5MyAxNS45OCAzLjg3MiA0LjIzIDYuMjE1IDkuNjE3IDYuMjE1IDE2LjIxIDAgMjMuMTk0LTE0LjEyNyAyOC4zLTI3LjU3NCAyOS43OTYgMi4xNjcgMS44NzQgNC4wOTcgNS41NSA0LjA5NyAxMS4xODMgMCA4LjA4LS4wNyAxNC41ODMtLjA3IDE2LjU3MiAwIDEuNjA3IDEuMDg4IDMuNDkgNC4xNDggMi44OTcgMjMuOTgtNy45OTQgNDEuMjYzLTMwLjYyMiA0MS4yNjMtNTcuMjk0QzEyNC4zODggMzIuMTQgOTcuMzUgNS4xMDQgNjQgNS4xMDR6IiBjbGlwLXJ1bGU9ImV2ZW5vZGQiIGZpbGwtcnVsZT0iZXZlbm9kZCIvPjxwYXRoIGQ9Ik0yNi40ODQgOTEuODA2Yy0uMTMzLjMtLjYwNS4zOS0xLjAzNS4xODUtLjQ0LS4xOTYtLjY4NS0uNjA1LS41NDMtLjkwNi4xMy0uMzEuNjAzLS4zOTUgMS4wNC0uMTg4LjQ0LjE5Ny42OS42MS41MzcuOTF6bTIuNDQ2IDIuNzI5Yy0uMjg3LjI2Ny0uODUuMTQzLTEuMjMyLS4yOC0uMzk2LS40Mi0uNDctLjk4My0uMTc3LTEuMjU0LjI5OC0uMjY2Ljg0NC0uMTQgMS4yNC4yOC4zOTQuNDI2LjQ3Mi45ODQuMTcgMS4yNTV6TTMxLjMxMiA5OC4wMTJjLS4zNy4yNTgtLjk3Ni4wMTctMS4zNS0uNTItLjM3LS41MzgtLjM3LTEuMTgzLjAxLTEuNDQuMzczLS4yNTguOTctLjAyNSAxLjM1LjUwNy4zNjguNTQ1LjM2OCAxLjE5LS4wMSAxLjQ1MnptMy4yNjEgMy4zNjFjLS4zMy4zNjUtMS4wMzYuMjY3LTEuNTUyLS4yMy0uNTI3LS40ODctLjY3NC0xLjE4LS4zNDMtMS41NDQuMzM2LS4zNjYgMS4wNDUtLjI2NCAxLjU2NC4yMy41MjcuNDg2LjY4NiAxLjE4LjMzMyAxLjU0M3ptNC41IDEuOTUxYy0uMTQ3LjQ3My0uODI1LjY4OC0xLjUxLjQ4Ni0uNjgzLS4yMDctMS4xMy0uNzYtLjk5LTEuMjM4LjE0LS40NzcuODIzLS43IDEuNTEyLS40ODUuNjgzLjIwNiAxLjEzLjc1Ni45ODggMS4yMzd6bTQuOTQzLjM2MWMuMDE3LjQ5OC0uNTYzLjkxLTEuMjguOTItLjcyMy4wMTctMS4zMDgtLjM4Ny0xLjMxNS0uODc3IDAtLjUwMy41NjgtLjkxIDEuMjktLjkyNC43MTctLjAxMyAxLjMwNi4zODcgMS4zMDYuODh6bTQuNTk4LS43ODJjLjA4Ni40ODUtLjQxMy45ODQtMS4xMjYgMS4xMTctLjcuMTMtMS4zNS0uMTcyLTEuNDQtLjY1My0uMDg2LS40OTguNDIyLS45OTcgMS4xMjItMS4xMjYuNzE0LS4xMjMgMS4zNTQuMTcgMS40NDQuNjYzem0wIDAiLz48L2c+PC9zdmc+;" vertex="1" parent="1">
                    <mxGeometry x="608" y="340" width="64" height="64" as="geometry"/>
                </mxCell>
                <mxCell id="35" value="html5" style="shape=image;verticalLabelPosition=bottom;labelBackgroundColor=default;verticalAlign=top;aspect=fixed;imageAspect=0;image=data:image/svg+xml,PHN2ZyB4bWxucz0iaHR0cDovL3d3dy53My5vcmcvMjAwMC9zdmciIHZpZXdCb3g9IjAgMCAxMjggMTI4Ij48cGF0aCBkPSJNMTkuMDM3IDExMy44NzZMOS4wMzIgMS42NjFoMTA5LjkzNmwtMTAuMDE2IDExMi4xOTgtNDUuMDE5IDEyLjQ4eiIgZmlsbD0iI0U0NEQyNiIvPjxwYXRoIGQ9Ik02NCAxMTYuOGwzNi4zNzgtMTAuMDg2IDguNTU5LTk1Ljg3OEg2NHoiIGZpbGw9IiNGMTY1MjkiLz48cGF0aCBkPSJNNjQgNTIuNDU1SDQ1Ljc4OEw0NC41MyAzOC4zNjFINjRWMjQuNTk5SDI5LjQ4OWwuMzMgMy42OTIgMy4zODIgMzcuOTI3SDY0em0wIDM1Ljc0M2wtLjA2MS4wMTctMTUuMzI3LTQuMTQtLjk3OS0xMC45NzVIMzMuODE2bDEuOTI4IDIxLjYwOSAyOC4xOTMgNy44MjYuMDYzLS4wMTd6IiBmaWxsPSIjRUJFQkVCIi8+PHBhdGggZD0iTTYzLjk1MiA1Mi40NTV2MTMuNzYzaDE2Ljk0N2wtMS41OTcgMTcuODQ5LTE1LjM1IDQuMTQzdjE0LjMxOWwyOC4yMTUtNy44Mi4yMDctMi4zMjUgMy4yMzQtMzYuMjMzLjMzNS0zLjY5NmgtMy43MDh6bTAtMjcuODU2djEzLjc2MmgzMy4yNDRsLjI3Ni0zLjA5Mi42MjgtNi45NzguMzI5LTMuNjkyeiIgZmlsbD0iI2ZmZiIvPjwvc3ZnPg==;" vertex="1" parent="1">
                    <mxGeometry x="188" y="240" width="64" height="64" as="geometry"/>
                </mxCell>
                <mxCell id="36" value="javascript" style="shape=image;verticalLabelPosition=bottom;labelBackgroundColor=default;verticalAlign=top;aspect=fixed;imageAspect=0;image=data:image/svg+xml,PHN2ZyB4bWxucz0iaHR0cDovL3d3dy53My5vcmcvMjAwMC9zdmciIHZpZXdCb3g9IjAgMCAxMjggMTI4Ij48cGF0aCBkPSJNMS40MDggMS40MDhoMTI1LjE4NHYxMjUuMTg1SDEuNDA4eiIgZmlsbD0iI0YwREI0RiIvPjxwYXRoIGQ9Ik0xMTYuMzQ3IDk2LjczNmMtLjkxNy01LjcxMS00LjY0MS0xMC41MDgtMTUuNjcyLTE0Ljk4MS0zLjgzMi0xLjc2MS04LjEwNC0zLjAyMi05LjM3Ny01LjkyNi0uNDUyLTEuNjktLjUxMi0yLjY0Mi0uMjI2LTMuNjY1LjgyMS0zLjMyIDQuNzg0LTQuMzU1IDcuOTI1LTMuNDAzIDIuMDIzLjY3OCAzLjkzOCAyLjIzNyA1LjA5MyA0LjcyNCA1LjQwMi0zLjQ5OCA1LjM5MS0zLjQ3NSA5LjE2My01Ljg3OS0xLjM4MS0yLjE0MS0yLjExOC0zLjEyOS0zLjAyMi00LjA0NS0zLjI0OS0zLjYyOS03LjY3Ni01LjQ5OC0xNC43NTYtNS4zNTVsLTMuNjg4LjQ3N2MtMy41MzQuODkzLTYuOTAyIDIuNzQ4LTguODc3IDUuMjM1LTUuOTI2IDYuNzI0LTQuMjM2IDE4LjQ5MiAyLjk3NSAyMy4zMzUgNy4xMDQgNS4zMzIgMTcuNTQgNi41NDUgMTguODczIDExLjUzMSAxLjI5NyA2LjEwNC00LjQ4NiA4LjA4LTEwLjIzNCA3LjM3OC00LjIzNi0uODgxLTYuNTkyLTMuMDM0LTkuMTM5LTYuOTQ5LTQuNjg4IDIuNzEzLTQuNjg4IDIuNzEzLTkuNTA4IDUuNDg1IDEuMTQzIDIuNDk5IDIuMzQ0IDMuNjMgNC4yNiA1Ljc5NSA5LjA2OCA5LjE5OCAzMS43NiA4Ljc0NiAzNS44My01LjE3Ni4xNjUtLjQ3OCAxLjI2MS0zLjY2Ni4zOC04LjU4MXpNNjkuNDYyIDU4Ljk0M0g1Ny43NTNsLS4wNDggMzAuMjcyYzAgNi40MzguMzMzIDEyLjM0LS43MTQgMTQuMTQ5LTEuNzEzIDMuNTU4LTYuMTUyIDMuMTE3LTguMTc1IDIuNDI3LTIuMDU5LTEuMDEyLTMuMTA2LTIuNDUxLTQuMzE5LTQuNDg1LS4zMzMtLjU4NC0uNTgzLTEuMDM2LS42NjctMS4wNzFsLTkuNTIgNS44M2MxLjU4MyAzLjI0OSAzLjkxNSA2LjA2OSA2LjkwMiA3LjkwMSA0LjQ2MiAyLjY3OCAxMC40NTkgMy40OTkgMTYuNzMxIDIuMDU5IDQuMDgyLTEuMTg5IDcuNjA0LTMuNjUyIDkuNDQ4LTcuNDAxIDIuNjY2LTQuOTE1IDIuMDk0LTEwLjg2NCAyLjA3LTE3LjQ0NC4wNi0xMC43MzUuMDAxLTIxLjQ2OC4wMDEtMzIuMjM3eiIgZmlsbD0iIzMyMzMzMCIvPjwvc3ZnPg==;" vertex="1" parent="1">
                    <mxGeometry x="188" y="540" width="64" height="64" as="geometry"/>
                </mxCell>
                <mxCell id="38" value="sql server" style="shape=image;verticalLabelPosition=bottom;labelBackgroundColor=default;verticalAlign=top;aspect=fixed;imageAspect=0;image=data:image/svg+xml,PHN2ZyB4bWxucz0iaHR0cDovL3d3dy53My5vcmcvMjAwMC9zdmciIHZpZXdCb3g9IjAgMCAxMjggMTI4Ij48cGF0aCBkPSJNNTUuMjUgNC4xNWMtLjMzLjExLTIuMS42OC0zLjk2IDEuMjktMTAgMy4yNy0xNy4wOCA3LjA2LTE4Ljg0IDEwLjA2LS42NyAxLjE1LS44IDIuMDgtLjQgMy4wMS40NCAxLjA1IDEuMjUgMS44NCAzLjQ3IDMuNDEgMS4wNC43MyAyLjgxIDIuMjYgMy45NiAzLjQxIDUuNSA1LjQ5IDguMTcgMTIuMjIgNy44NyAxOS44My0uMzQgOC41Ni00LjM1IDE3LjEyLTEyLjAzIDI1LjY5LTIuNjggMi45OS01LjQzIDUuNDgtMTAuNzEgOS43MS00LjQgMy41Mi02Ljc5IDUuOC04LjQyIDguMDEtNC45OSA2LjgtMy42NiAxMi44NiAzLjk2IDE3LjkyIDYuNzIgNC40NyAxOC41NiA4LjE5IDMyLjUxIDEwLjIxIDQuNjguNjggOS45NyAxLjExIDExLjI0LjkybC44OS0uMTMgMS40LTIuNTJjNy4wOC0xMi43NSAxMC42Ni0yNC43NyAxMS4wOS0zNy4yMS4xOS01LjU1LS41MS0xMi4xMi0xLjctMTUuOTYtLjIyLS42OS0uMzgtMS4yOC0uMzUtMS4zLjAyLS4wMiAyLS42MSA0LjQtMS4zMyAxMi42MS0zLjc2IDI0LjgxLTYuNzIgMzQuODktOC40NyAxLjk2LS4zNCAzLjY0LS42OSAzLjczLS43OC41NC0uNTMtMS4wMy0yLjk4LTMuNTgtNS42MS05LjQzLTkuNzMtMjYuMDktMTcuMTQtNDUuNjQtMjAuMjktMy43Ny0uNjEtNC4yMy0uODMtNS42My0yLjY4LTIuMjItMi45NC00LjMxLTcuOTctNy4xNi0xNy4xNy0uMDktLjI4LS4xOC0uMjgtLjk5LS4wMnptMS4zIDMuNDZjMS4xIDIuOTkgMS43NyA1LjM0IDEuNzcgNi4xN3YuNjVsLS45My0uMTFjLTUuMDQtLjU4LTEzLjA4LTEuODMtMTQuNzktMi4yOS0uNDQtLjEyLS42OS0uMjktLjYxLS40Mi4xMy0uMjEgMS44NC0xLjAzIDYuOTItMy4zNCA0Ljc0LTIuMTUgNi41NC0yLjk1IDYuNjgtMi45Ni4wNiAwIC40OSAxLjAzLjk2IDIuM3ptLTEwLjY2IDYuMzFjNi4xNSAxLjI5IDEwLjYzIDIuMSAxMS42MiAyLjEuOTYgMCAuODUuMDgtMy42NyAyLjg0LTMuNDkgMi4xMi0zLjg5IDIuMzItNC43NyAyLjMyaC0uOTZsLTIuNTgtMi42MmMtMy4xMy0zLjE3LTUuMjUtNS40OS01LjI1LTUuNzUgMC0uMTEuMDYtLjE0LjE1LS4wOS4wOC4wNCAyLjU1LjU5IDUuNDYgMS4yem0tNC41NCAyLjkxYzEuNTEgMS43NiAyLjY4IDMuMjQgMi42MiAzLjMxLS4xMy4xMy00LjQ0LS45NC03LjA4LTEuNzUtMi4zLS43MS0yLjU4LS45NS0xLjk3LTEuNzMuNC0uNTIgMy4zNy0zIDMuNTktMy4wMS4wNi0uMDEgMS4zMyAxLjQxIDIuODQgMy4xOHptMTkuNjIgMy42NWMuNiAxLjQzIDEuMDYgMi41OSAxLjA0IDIuNjEtLjAzLjAyLTguMTEtMS4yMy04LjgyLTEuMzctLjE1LS4wMyAxLjIyLS45NiAzLjA2LTIuMDhzMy40MS0xLjk3IDMuNDktMS44OGMuMDguMDcuNjMgMS4yOSAxLjIzIDIuNzJ6bS0xNy42MiAyLjcxYy4xNi4xNiAyLjA5IDYuMzYgMiA2LjQ0LS4wMy4wMy0uOTUtMS4wMy0yLjA0LTIuMzgtMS4xLTEuMzUtMi43NS0zLjI0LTMuNy00LjIzbC0xLjcxLTEuNzkgMi42Ny45MmMxLjQ2LjUxIDIuNzIuOTggMi43OCAxLjA0em03LjcyLjgzYzMuMzUuNDggNi4xMy45MSA2LjE4Ljk2LjA0LjA1LTEuOTggMS42Mi00LjUgMy41LTIuNTIgMS44Ny00LjYgMy4zOC00LjYzIDMuMzUtLjAzLS4wMy0uMjgtLjgxLS41Ni0xLjc0LS4yOC0uOTMtMS0yLjg2LTEuNTktNC4zMS0uNTktMS40NS0xLjA1LTIuNjMtMS4wMy0yLjYzLjAyIDAgMi43OC40IDYuMTMuODd6bTguNDIgMi42OGMuNzQgMS43MyAxLjAzIDMuMzkgMS4xNSA2LjcuMDYgMS43OC4wNyAzLjIzLjAxIDMuMjMtLjA2IDAtMS4xMi0uMzctMi4zNS0uODEtMi40Ni0uODktNy4yOC0yLjQ4LTcuODUtMi41OS0uMjUtLjA1LjkxLTEuMTYgMy45Ni0zLjc5IDIuMzgtMi4wNSA0LjQtMy43MiA0LjQ5LTMuNzIuMS4wMS4zNi40NS41OS45OHptOC42NC40MmMzLjcxLjc2IDYuOTUgMS40NCA3LjIxIDEuNS4zNy4wOS0uNTIuNjUtNC40NCAyLjgtMi43IDEuNDgtNS43NiAzLjE2LTYuOCAzLjc1LTEuMDUuNTktMS45MSAxLjA0LTEuOTMgMS4wMi0uMDItLjAyLjA5LS41Ny4yNC0xLjIzLjU2LTIuNC4yMS01LjQtLjkxLTcuNzktLjMzLS42OS0uNi0xLjMtLjYtMS4zNSAwLS4xNy42Ny0uMDUgNy4yMyAxLjN6bTEwLjExIDQuNTNjLS4xOS44NC0uNiAyLjI3LS45MyAzLjItLjcxIDIuMDQtMy4zIDcuMzMtMy42NSA3LjQ3LS4xNC4wNi0xLjM2LS41MS0yLjY5LTEuMjUtMS4zMy0uNzQtMy4yNi0xLjcyLTQuMjctMi4xN2wtMS44NC0uODIgNi43OS00LjM1YzUuNjMtMy42MSA2LjgtNC4yOSA2Ljg2LTMuOTcuMDQuMi0uMDggMS4wNS0uMjcgMS44OXptNC45Ni0xLjU1YzcuMDQgMi4wMiAxNC40NyA0Ljc1IDE0LjA0IDUuMTYtLjA5LjA4LTEuMDEuMzktMi4wNC42OC01LjMxIDEuNTEtMTIuNyA0LjA2LTE2LjE2IDUuNTgtMS4wNy40Ny0yIC44Mi0yLjA1Ljc3LS4wNS0uMDUuMzctMS42MS45NC0zLjQ1IDEuMTEtMy42MyAyLjQtOC41MyAyLjQtOS4xNiAwLS4yOC4xLS4zNy4zNS0uMy4xOC4wNSAxLjMxLjM3IDIuNTIuNzJ6bS0zMC4yNyA3LjNjMS42MS41MyAzLjQ4IDEuMjQgNC4xNyAxLjU5IDEuMjUuNjMgMS4yNi42NC45IDEuMDMtLjY0LjcxLTcuNjMgNy4yMi03LjgzIDcuMjktLjEuMDQtLjE4LS45NS0uMTgtMi4zOC0uMDEtMi40OC0uMjktNi45NS0uNS03Ljk1LS4xNi0uNzMtLjAzLS43MiAzLjQ0LjQyem00NC43IDEuMjljLTEuNTQgMi41NC00LjA3IDYuMTYtNS45IDguNDQtMS44NyAyLjM0LTUuODIgNi43NC02LjA1IDYuNzQtLjA5IDAtLjY2LS43MS0xLjI3LTEuNTktMi4yNS0zLjIxLTQuODYtNS45OS03LjE1LTcuNjEtLjIyLS4xNS0uMzUtLjMyLS4zLS4zNy4wNS0uMDUgMy44MS0xLjQzIDguMzMtMy4wNyA5LjE2LTMuMzIgMTMuMTktNC42NyAxMy40NC00LjQ5LjAyLjAzLS40Ny45LTEuMSAxLjk1em01LjczLS40M2M2LjMyIDQuNDEgMTAuNjIgNy45OCAxMi4xOCAxMC4xMS4zOS41NC42OCAxIC42NCAxLjAzLS4wNC4wMy0yLjA3LjI2LTQuNTMuNS05LjgxLjk3LTE2LjggMS45NS0yMC41IDIuODktLjk5LjI1LTEuODIuNDQtMS44My40My0uMDItLjAyLjYzLS44MiAxLjQ2LTEuODEgNC4yOC01LjEzIDguMTQtMTAuNDcgOS41OC0xMy4yNC4zOC0uNzMuNzUtMS4zMy44My0xLjMzLjA3LS4wMSAxLjA0LjYzIDIuMTcgMS40MnptLTM1LjQzIDUuNDdjMS4yMS42NSAyLjE0IDEuMjUgMi4wOSAxLjM1LS4wOS4xOC0xMC43NiA2LjAyLTEwLjg1IDUuOTQtLjAyLS4wMi41My0xLjc3IDEuMjMtMy45MXMxLjM4LTQuNDYgMS41MS01LjE3bC4yNC0xLjMgMS44Ljk2YzEgLjUzIDIuNzcgMS40OCAzLjk4IDIuMTN6bS04LjkzLjM0Yy0xLjAzIDMuNTctMy4xMiA4LjE3LTQuMDcgOC45Ny0uMjIuMTgtLjY1LS4wNy0yLjA2LTEuMjEtLjk5LS44LTItMS41OS0yLjI3LTEuNzctLjI2LS4xOC0uNDUtLjM3LS40MS0uNDIuNzMtLjczIDkuMjMtNy41OCA5LjI3LTcuNDcuMDMuMDctLjE4LjkzLS40NiAxLjl6bTE5LjMyIDYuMjFjMS42MSAxLjA3IDUuMTcgNC4yNiA0Ljk4IDQuNDYtLjA1LjA1LTMuNjcgMS4yMy04LjAzIDIuNi00LjM2IDEuMzgtOS4yMiAyLjk0LTEwLjggMy40Ny0xLjU5LjUzLTIuODkuOTUtMi45LjkzLS4wMi0uMDIgMS4wOS0xLjI4IDIuNDYtMi44MSAzLjU3LTMuOTggNy4yNC04LjI1IDguNTQtOS45M2wxLjEyLTEuNDUgMS40Ny43OWMuNzkuNDQgMi4yMyAxLjMyIDMuMTYgMS45NHptLTguMjYtMi4yOWMtLjEuMTMtMS4wNiAxLjM1LTIuMTQgMi43Mi0xLjA4IDEuMzYtMy42NiA0LjY4LTUuNzYgNy4zN2wtMy44MSA0LjktLjEzLS44M2MtLjI0LTEuNjEtMS4xLTQuNzQtMS41OS01LjgxbC0uNDktMS4wNyAyLjQyLTEuMjFjMi41LTEuMjUgNy43MS00LjA4IDEwLjE1LTUuNSAxLjU0LS45IDEuNjQtLjk0IDEuMzUtLjU3em0tMjAuMjEgNS45MmMuOTkuNTEgMS45MiAxLjE3IDEuOTIgMS4zOCAwIC4zMi02LjQ1IDUuMy02LjYyIDUuMTEtLjA0LS4wNC41NC0xLjE5IDEuMjktMi41Ni43Ni0xLjM3IDEuNTItMi45IDEuNy0zLjQyLjE4LS41Mi40Ni0uOTQuNi0uOTQuMTYgMCAuNjYuMiAxLjExLjQzem01LjUgNi4xM2MuNDUuODcuOTEgMy4zMi42NyAzLjU0LS4xLjA5LTIuNzYgMS4zNS01LjkzIDIuOC0zLjE3IDEuNDUtNy4yOCAzLjQtOS4xNyA0LjM0LTEuODguOTQtMy4zMSAxLjYtMy4xNyAxLjQ4LjE0LS4xMyAyLjIxLTEuODYgNC42MS0zLjg2IDQuNjQtMy44NiA5LjkzLTguNDcgMTAuOS05LjQ5bC41OC0uNjEuNTcuNTVjLjMyLjMuNzQuODYuOTQgMS4yNXptLTUuMjEtLjA1Yy0uNDYuNDEtMi45NCAyLjU4LTUuNSA0LjhDNDIuMDggNjcgMzkgNjkuNjggMzcuOCA3MC43M2MtMi40MiAyLjExLTIuNDIgMi4xMS42Ny0xLjkyIDIuMzktMy4xMiAzLjY0LTQuMjggNy4wNy02LjU4IDEuNjctMS4xMiA0Ljk5LTIuOTkgNS4zMS0yLjk5LjA3LS4wMS0uMjUuMzQtLjcxLjc1em0yNC4wMyAyLjEyYy4xMy42NS4yOCAyLjY5LjM1IDQuNTFsLjEyIDMuMzItLjc3LS4zNmMtMi42Ni0xLjIzLTEwLjEzLTUuNDQtOS44NS01LjU1IDEuNjMtLjY1IDkuNy0zLjMzIDkuNzktMy4yNC4wNy4wNy4yMy42Ni4zNiAxLjMyem0tNi4zNCA1Ljk0YzMuMTEgMS44MyA1LjY4IDMuMzUgNS43MiAzLjM4LjA0LjAzLS4zNy4zNy0uODguNzUtLjk5LjczLTExLjU0IDYuMTgtMTEuNjggNi4wNC0uMDQtLjA0LjEtLjk1LjMxLTIgLjQzLTIuMTIuODItOC40NC42My0xMC40NS0uMDYtLjcxLS4wNC0xLjIxLjA2LTEuMTUuMTEuMDYgMi43MyAxLjYgNS44NCAzLjQzem0tOC42LTEuMzRjLjI0IDEuOTctLjA1IDUuOTMtLjU4IDcuOTktLjYzIDIuNDItLjk5IDMuNDMtMS4yNiAzLjUyLS4zNy4xMy0yLjY3LTEuOTctNC4wOC0zLjcyLTEuNDItMS43Ni0zLjI4LTUuMDgtMy01LjM1LjE3LS4xNiA4LjM5LTMuNTUgOC42NC0zLjU2LjA4LS4wMS4yMS41LjI4IDEuMTJ6bS0xMC4wOCA0Ljk1Yy44NyAxLjggMi44NiA0LjQgNS4wNCA2LjYgMS40IDEuNDEgMS43NSAxLjg3IDEuNTMgMi4wMS0uOTguNjYtNS4zNSAyLjcxLTguMTEgMy43OS0zLjM1IDEuMzItNy43IDIuODItNy44IDIuNy0uMDQtLjA0Ljk2LTEuODYgMi4yMi00LjA0IDIuNzMtNC43NCA2LjE4LTExLjQ0IDYuMTgtMTEuOTkgMC0uNy4yOS0uNDIuOTQuOTN6bS01LjE2LjExYy0uMDUuMTQtLjQ3IDEuMTgtLjkyIDIuMzMtMS45NCA0LjkyLTUuNzEgMTEuNi02LjU1IDExLjYtLjY1IDAtMS42MS0zLjg5LTEuODgtNy42M2wtLjE0LTEuODggNC42MS0yLjMzYzIuNTQtMS4yOCA0LjY5LTIuMzMgNC44LTIuMzMuMDktLjAxLjEzLjEuMDguMjR6bTMwLjc4IDQuNTVjLjAyIDIuODMtMS4xNyA5LjY4LTEuOCAxMC4zNy0uMjYuMjktMy4xOS0uNzktNS44Mi0yLjE1LTIuMzYtMS4yMi02LjI0LTMuNjMtNi4yNC0zLjg3IDAtLjA3LjU5LS4zNyAxLjMzLS42OCAxLjQtLjU5IDcuOTEtNC4wNyAxMC42Ny01LjdsMS41OS0uOTQuMTQuNzJjLjA1LjM5LjEyIDEuNDIuMTMgMi4yNXptLTQzLjQzIDMuMjdjLjI3IDIuMjQuOTYgNC45OCAxLjgyIDcuMTYuMzUuODkuNiAxLjY2LjU2IDEuNy0uMzQuMzEtMTQuMTkgNC4xMi0xNi4wMiA0LjQxbC0uODcuMTQuMTMtLjY3Yy4xOS0uOTUgMS41My0zLjY5IDIuNTMtNS4xNyAxLjI0LTEuODQgNC4zMS00LjkyIDYuMzQtNi4zNSAxLjUxLTEuMDcgNS4xNS0zLjE5IDUuMjYtMy4wNy4wMS4wMS4xMy44NC4yNSAxLjg1em0zMS40MiA0LjcyYzQuMjggMi4wNSA1LjkgMi43NiA3Ljk1IDMuNDdsMS41Ny41NC0uOTkuNWMtNS42MSAyLjg0LTE1LjUzIDYuODktMTguMSA3LjM5LS41Ny4xMS0uNjUuMDgtLjU0LS4yLjQ0LTEuMTUgNi4zNi0xMy4zOCA2LjQ3LTEzLjM4LjA3LS4wMSAxLjcyLjc2IDMuNjQgMS42OHptLTcuNTMtLjQ2Yy0uMyAxLjQ0LTEuOTMgNi4xMS0yLjg4IDguMjMtLjgyIDEuODQtMi43MiA1LjQzLTMuMDYgNS43Ny0uMTUuMTUtMy41My0xLjc2LTUuMTMtMi45LTEuOC0xLjI4LTUuNzQtNS4wOC01LjYzLTUuNDMuMDQtLjEzIDIuNDQtMS4wNSA1LjMzLTIuMDUgNi4wOS0yLjEgOS41LTMuMzcgMTAuNDktMy44OC45Ni0uNSAxLjA0LS40Ny44OC4yNnptMTcuMDMgNi40NWMtLjA2LjQyLS40IDIuMjYtLjc3IDQuMTItMS4xNiA1LjgzLTIuNTcgOS44MS0zLjQ3IDkuODEtMS4yNCAwLTkuNzMtMi4wNi0xMi40Ny0zLjAzLTEuODYtLjY2LTMuNDctMS40MS00LTEuODgtLjMzLS4yOS0uMTYtLjM5IDIuMjgtMS4zOSA3Ljg1LTMuMiAxNi45LTcuMjggMTcuODgtOC4wNi41Ny0uNDUuNjYtLjM5LjU1LjQzem0tMzkuNzIgMS43OGMtLjg5IDEuNTktMi43MiA0LjIyLTYuMiA4LjkybC0yLjk3IDQtLjg5LS42NGMtMS4yNS0uODktMy4yMy0zLjA1LTQuMDYtNC40Mi0uODktMS40Ny0xLjUtMy4yOC0xLjU3LTQuNjZsLS4wNi0xLjA3IDEuNDctLjE1YzEuOTktLjIgNy41NS0xLjM1IDExLjUyLTIuMzkgMS44LS40NyAzLjMtLjgzIDMuMzQtLjguMDMuMDQtLjIzLjU4LS41OCAxLjIxem04LjYzIDQuMTFjLjk5LjcxIDIuMzUgMS42MSAzLjA1IDIuMDJsMS4yNy43NC0uNTcuMjRjLS4zMi4xMy00LjkzIDEuODEtMTAuMjYgMy43NC05LjEgMy4yOS05LjcgMy40OC05Ljk1IDMuMTQtLjE1LS4yLS4yNS0uNDEtLjIzLS40OC4wMi0uMDcgMi40OC0zLjI0IDUuNDctNy4wN2w1LjQzLTYuOTUgMiAxLjY3YzEuMTIuOTMgMi44IDIuMjQgMy43OSAyLjk1em0yLjI0IDEwLjQ1Yy0xLjk5IDIuOTctMy42NyA1LjQ4LTMuNzMgNS41Ni0uMTUuMi0zLjMzLS41NS01LjcxLTEuMzQtMi41LS44NC01LjU4LTIuNC02Ljc4LTMuNDNsLS44Ny0uNzUgMS45Ni0uNTNjOC4wMy0yLjE5IDE4LjY1LTUgMTguNy00Ljk2LjA0LjAxLTEuNTggMi40OC0zLjU3IDUuNDV6bTkuNTYtNC41YzQuMjUgMS40NiA4LjEzIDIuMjkgMTMuMTYgMi44M2wxLjM5LjE1LTMuNzUgMS4zNWMtOS4zNiAzLjM4LTE2Ljk0IDUuNzUtMjAuNzYgNi40OS0xLjA3LjIxLTIuMDUuMzgtMi4xNi4zOC0uMTEgMCAuNjYtMS4wNSAxLjcxLTIuMzIgMi44Ni0zLjQ5IDUuOTYtNy40NiA2Ljc4LTguNjguNC0uNTkuOC0xLjA5Ljg5LTEuMDkuMDkuMDEgMS4zMS40IDIuNzQuODl6bTEzLjk1IDcuODhjLTEuNjEgNC4xNi0yLjc5IDYuNjktMy4yMSA2Ljg1LS44LjMxLTExLjg1LTEuMzItMTUuMjItMi4yMy0yLjI0LS42MS0zLjY3LTEuMi0zLjI1LTEuMzUuMTYtLjA2IDEuNzYtLjQzIDMuNTctLjg0IDUuODUtMS4zMiAxNC43Ny00LjAzIDE4LjQ2LTUuNjEuNDgtLjIuOS0uMzUuOTMtLjMyLjAyLjAzLS41NSAxLjYtMS4yOCAzLjV6Ii8+PC9zdmc+;" vertex="1" parent="1">
                    <mxGeometry x="468" y="240" width="64" height="64" as="geometry"/>
                </mxCell>
                <mxCell id="47" value="visual studio" style="shape=image;verticalLabelPosition=bottom;labelBackgroundColor=default;verticalAlign=top;aspect=fixed;imageAspect=0;image=data:image/svg+xml,PHN2ZyB4bWxucz0iaHR0cDovL3d3dy53My5vcmcvMjAwMC9zdmciIHZpZXdCb3g9IjAgMCAxMjggMTI4Ij48cGF0aCBkPSJNOTUgMi4zbDMwLjUgMTIuM3Y5OC43bC0zMC43IDEyLjQtNDktNDguNy0zMSAyNC4xLTEyLjMtNi4yVjMzLjFsMTIuMy01LjkgMzEgMjQuM3pNMTQuOCA0NS43djM3LjVsMTguNS0xOXptNDguMSAxOC41bDMxLjkgMjUuMVYzOXoiIGZpbGw9IiM2ODIxN2EiLz48L3N2Zz4=;" vertex="1" parent="1">
                    <mxGeometry x="748" y="340" width="64" height="64" as="geometry"/>
                </mxCell>
                <mxCell id="48" value="visual studio core" style="shape=image;verticalLabelPosition=bottom;labelBackgroundColor=default;verticalAlign=top;aspect=fixed;imageAspect=0;image=data:image/svg+xml,PHN2ZyB4bWxucz0iaHR0cDovL3d3dy53My5vcmcvMjAwMC9zdmciIHZpZXdCb3g9IjAgMCAxMjggMTI4Ij48cGF0aCBmaWxsPSIjMjQ4OWNhIiBkPSJNMy42NTYgNDUuMDQzcy0zLjAyNy0yLjE5MS42MS01LjExM2w4LjQ2OC03LjU5NHMyLjQyNi0yLjU1OSA0Ljk4OS0uMzI4bDc4LjE3NSA1OS4zMjh2MjguNDVzLS4wMzkgNC40NjgtNS43NTcgMy45NzZ6bTAgMCIvPjxwYXRoIGZpbGw9IiMxMDcwYjMiIGQ9Ik0yMy44MDkgNjMuMzc5TDMuNjU2IDgxLjc0MnMtMi4wNyAxLjU0MyAwIDQuMzA1bDkuMzU2IDguNTI3czIuMjIyIDIuMzk1IDUuNTA4LS4zMjhsMjEuMzU5LTE2LjIzOHptMCAwIi8+PHBhdGggZmlsbD0iIzA4NzdiOSIgZD0iTTU5LjE4NCA2My41MzFsMzYuOTUzLTI4LjI4NS0uMjM5LTI4LjI5N1M5NC4zMi43NzMgODkuMDU1IDMuOTlMMzkuODc5IDQ4Ljg1MXptMCAwIi8+PHBhdGggZmlsbD0iIzNjOTlkNCIgZD0iTTkwLjE0IDEyMy43OTdjMi4xNDUgMi4yMDMgNC43NDcgMS40OCA0Ljc0NyAxLjQ4bDI4Ljc5Ny0xNC4yMjJjMy42ODctMi41MiAzLjE3MS01LjY0NSAzLjE3MS01LjY0NVYyMC40NjVjMC0zLjczNS0zLjgxMi01LjAyNC0zLjgxMi01LjAyNEw5OC4wODIgMy4zOGMtNS40NTMtMy4zNzktOS4wMjcuNjEtOS4wMjcuNjFzNC41OTMtMy4zMTcgNi44NDMgMi45NnYxMTIuMzE3YzAgLjc3My0uMTY0IDEuNTMtLjQ5MiAyLjIxNC0uNjU2IDEuMzMyLTIuMDg2IDIuNTctNS41MDQgMi4wNTF6bTAgMCIvPjwvc3ZnPg==;" vertex="1" parent="1">
                    <mxGeometry x="748" y="440" width="64" height="64" as="geometry"/>
                </mxCell>
                <mxCell id="55" value="slack" style="shape=image;verticalLabelPosition=bottom;labelBackgroundColor=default;verticalAlign=top;aspect=fixed;imageAspect=0;image=data:image/svg+xml,PHN2ZyB4bWxucz0iaHR0cDovL3d3dy53My5vcmcvMjAwMC9zdmciIHZpZXdCb3g9IjAgMCAxMjggMTI4Ij48cGF0aCBmaWxsPSIjZGUxYzU5IiBkPSJNMjcuMjU1IDgwLjcxOWMwIDcuMzMtNS45NzggMTMuMzE3LTEzLjMwOSAxMy4zMTdDNi42MTYgOTQuMDM2LjYzIDg4LjA0OS42MyA4MC43MTlzNS45ODctMTMuMzE3IDEzLjMxNy0xMy4zMTdoMTMuMzA5em02LjcwOSAwYzAtNy4zMyA1Ljk4Ny0xMy4zMTcgMTMuMzE3LTEzLjMxN3MxMy4zMTcgNS45ODYgMTMuMzE3IDEzLjMxN3YzMy4zMzVjMCA3LjMzLTUuOTg2IDEzLjMxNy0xMy4zMTcgMTMuMzE3LTcuMzMgMC0xMy4zMTctNS45ODctMTMuMzE3LTEzLjMxN3ptMCAwIi8+PHBhdGggZmlsbD0iIzM1YzVmMCIgZD0iTTQ3LjI4MSAyNy4yNTVjLTcuMzMgMC0xMy4zMTctNS45NzgtMTMuMzE3LTEzLjMwOUMzMy45NjQgNi42MTYgMzkuOTUxLjYzIDQ3LjI4MS42M3MxMy4zMTcgNS45ODcgMTMuMzE3IDEzLjMxN3YxMy4zMDl6bTAgNi43MDljNy4zMyAwIDEzLjMxNyA1Ljk4NyAxMy4zMTcgMTMuMzE3cy01Ljk4NiAxMy4zMTctMTMuMzE3IDEzLjMxN0gxMy45NDZDNi42MTYgNjAuNTk4LjYzIDU0LjYxMi42MyA0Ny4yODFjMC03LjMzIDUuOTg3LTEzLjMxNyAxMy4zMTctMTMuMzE3em0wIDAiLz48cGF0aCBmaWxsPSIjMmViNTdkIiBkPSJNMTAwLjc0NSA0Ny4yODFjMC03LjMzIDUuOTc4LTEzLjMxNyAxMy4zMDktMTMuMzE3IDcuMzMgMCAxMy4zMTcgNS45ODcgMTMuMzE3IDEzLjMxN3MtNS45ODcgMTMuMzE3LTEzLjMxNyAxMy4zMTdoLTEzLjMwOXptLTYuNzA5IDBjMCA3LjMzLTUuOTg3IDEzLjMxNy0xMy4zMTcgMTMuMzE3cy0xMy4zMTctNS45ODYtMTMuMzE3LTEzLjMxN1YxMy45NDZDNjcuNDAyIDYuNjE2IDczLjM4OC42MyA4MC43MTkuNjNjNy4zMyAwIDEzLjMxNyA1Ljk4NyAxMy4zMTcgMTMuMzE3em0wIDAiLz48cGF0aCBmaWxsPSIjZWJiMDJlIiBkPSJNODAuNzE5IDEwMC43NDVjNy4zMyAwIDEzLjMxNyA1Ljk3OCAxMy4zMTcgMTMuMzA5IDAgNy4zMy01Ljk4NyAxMy4zMTctMTMuMzE3IDEzLjMxN3MtMTMuMzE3LTUuOTg3LTEzLjMxNy0xMy4zMTd2LTEzLjMwOXptMC02LjcwOWMtNy4zMyAwLTEzLjMxNy01Ljk4Ny0xMy4zMTctMTMuMzE3czUuOTg2LTEzLjMxNyAxMy4zMTctMTMuMzE3aDMzLjMzNWM3LjMzIDAgMTMuMzE3IDUuOTg2IDEzLjMxNyAxMy4zMTcgMCA3LjMzLTUuOTg3IDEzLjMxNy0xMy4zMTcgMTMuMzE3em0wIDAiLz48L3N2Zz4=;" vertex="1" parent="1">
                    <mxGeometry x="748" y="540" width="64" height="64" as="geometry"/>
                </mxCell>
                <mxCell id="58" value="Mobile" style="ellipse;whiteSpace=wrap;html=1;aspect=fixed;" vertex="1" parent="1">
                    <mxGeometry x="40" y="140" width="80" height="80" as="geometry"/>
                </mxCell>
                <mxCell id="60" value="Database" style="ellipse;whiteSpace=wrap;html=1;aspect=fixed;" vertex="1" parent="1">
                    <mxGeometry x="460" y="140" width="80" height="80" as="geometry"/>
                </mxCell>
                <mxCell id="69" value="angular" style="shape=image;verticalLabelPosition=bottom;labelBackgroundColor=default;verticalAlign=top;aspect=fixed;imageAspect=0;image=data:image/svg+xml,PHN2ZyB4bWxuczp4bGluaz0iaHR0cDovL3d3dy53My5vcmcvMTk5OS94bGluayIgeG1sbnM9Imh0dHA6Ly93d3cudzMub3JnLzIwMDAvc3ZnIiB4bWw6c3BhY2U9InByZXNlcnZlIiBzdHlsZT0iZW5hYmxlLWJhY2tncm91bmQ6bmV3IDAgMCAyNTAgMjUwOyIgdmlld0JveD0iMCAwIDI1MCAyNTAiIHk9IjBweCIgeD0iMHB4IiBpZD0iTGF5ZXJfMSIgdmVyc2lvbj0iMS4xIj4KPHN0eWxlIHR5cGU9InRleHQvY3NzIj4KCS5zdDB7ZmlsbDojREQwMDMxO30KCS5zdDF7ZmlsbDojQzMwMDJGO30KCS5zdDJ7ZmlsbDojRkZGRkZGO30KPC9zdHlsZT4KPGc+Cgk8cG9seWdvbiBwb2ludHM9IjEyNSwzMCAxMjUsMzAgMTI1LDMwIDMxLjksNjMuMiA0Ni4xLDE4Ni4zIDEyNSwyMzAgMTI1LDIzMCAxMjUsMjMwIDIwMy45LDE4Ni4zIDIxOC4xLDYzLjIiIGNsYXNzPSJzdDAiLz4KCTxwb2x5Z29uIHBvaW50cz0iMTI1LDMwIDEyNSw1Mi4yIDEyNSw1Mi4xIDEyNSwxNTMuNCAxMjUsMTUzLjQgMTI1LDIzMCAxMjUsMjMwIDIwMy45LDE4Ni4zIDIxOC4xLDYzLjIgMTI1LDMwIiBjbGFzcz0ic3QxIi8+Cgk8cGF0aCBkPSJNMTI1LDUyLjFMNjYuOCwxODIuNmgwaDIxLjdoMGwxMS43LTI5LjJoNDkuNGwxMS43LDI5LjJoMGgyMS43aDBMMTI1LDUyLjFMMTI1LDUyLjFMMTI1LDUyLjFMMTI1LDUyLjEmIzEwOyYjOTsmIzk7TDEyNSw1Mi4xeiBNMTQyLDEzNS40SDEwOGwxNy00MC45TDE0MiwxMzUuNHoiIGNsYXNzPSJzdDIiLz4KPC9nPgo8L3N2Zz4=;" vertex="1" parent="1">
                    <mxGeometry x="188" y="840" width="64" height="64" as="geometry"/>
                </mxCell>
                <mxCell id="70" value="Tools" style="ellipse;whiteSpace=wrap;html=1;aspect=fixed;" vertex="1" parent="1">
                    <mxGeometry x="740" y="130" width="80" height="80" as="geometry"/>
                </mxCell>
                <mxCell id="71" value="css3" style="shape=image;verticalLabelPosition=bottom;labelBackgroundColor=default;verticalAlign=top;aspect=fixed;imageAspect=0;image=data:image/svg+xml,PHN2ZyB4bWxucz0iaHR0cDovL3d3dy53My5vcmcvMjAwMC9zdmciIHZpZXdCb3g9IjAgMCAxMjggMTI4Ij48cGF0aCBkPSJNMTguODE0IDExNC4xMjNMOC43NiAxLjM1MmgxMTAuNDhsLTEwLjA2NCAxMTIuNzU0LTQ1LjI0MyAxMi41NDMtNDUuMTE5LTEyLjUyNnoiIGZpbGw9IiMxNTcyQjYiLz48cGF0aCBkPSJNNjQuMDAxIDExNy4wNjJsMzYuNTU5LTEwLjEzNiA4LjYwMS05Ni4zNTRoLTQ1LjE2djEwNi40OXoiIGZpbGw9IiMzM0E5REMiLz48cGF0aCBkPSJNNjQuMDAxIDUxLjQyOWgxOC4zMDJsMS4yNjQtMTQuMTYzSDY0LjAwMVYyMy40MzVoMzQuNjgybC0uMzMyIDMuNzExLTMuNCAzOC4xMTRoLTMwLjk1VjUxLjQyOXoiIGZpbGw9IiNmZmYiLz48cGF0aCBkPSJNNjQuMDgzIDg3LjM0OWwtLjA2MS4wMTgtMTUuNDAzLTQuMTU5LS45ODUtMTEuMDMxSDMzLjc1MmwxLjkzNyAyMS43MTcgMjguMzMxIDcuODYzLjA2My0uMDE4di0xNC4zOXoiIGZpbGw9IiNFQkVCRUIiLz48cGF0aCBkPSJNODEuMTI3IDY0LjY3NWwtMS42NjYgMTguNTIyLTE1LjQyNiA0LjE2NHYxNC4zOWwyOC4zNTQtNy44NTguMjA4LTIuMzM3IDIuNDA2LTI2Ljg4MUg4MS4xMjd6IiBmaWxsPSIjZmZmIi8+PHBhdGggZD0iTTY0LjA0OCAyMy40MzV2MTMuODMxSDMwLjY0bC0uMjc3LTMuMTA4LS42My03LjAxMi0uMzMxLTMuNzExaDM0LjY0NnptLS4wNDcgMjcuOTk2djEzLjgzMUg0OC43OTJsLS4yNzctMy4xMDgtLjYzMS03LjAxMi0uMzMtMy43MTFoMTYuNDQ3eiIgZmlsbD0iI0VCRUJFQiIvPjwvc3ZnPg==;" vertex="1" parent="1">
                    <mxGeometry x="188" y="340" width="64" height="64" as="geometry"/>
                </mxCell>
                <mxCell id="72" value="bootstrap" style="shape=image;verticalLabelPosition=bottom;labelBackgroundColor=default;verticalAlign=top;aspect=fixed;imageAspect=0;image=data:image/svg+xml,PHN2ZyB4bWxucz0iaHR0cDovL3d3dy53My5vcmcvMjAwMC9zdmciIHZpZXdCb3g9IjAgMCAxMjggMTI4Ij48ZGVmcz48bGluZWFyR3JhZGllbnQgZ3JhZGllbnRVbml0cz0idXNlclNwYWNlT25Vc2UiIGdyYWRpZW50VHJhbnNmb3JtPSJ0cmFuc2xhdGUoMS4xMSAxNC42MTMpIHNjYWxlKC4yNDU2NikiIHkyPSIzNjUuOTUiIHkxPSIxMC43OTgiIHgyPSI1MjMuNDgiIHgxPSI3Ni4wNzkiIGlkPSJib290c3RyYXAtb3JpZ2luYWwtYSI+PHN0b3Agb2Zmc2V0PSIwIiBzdG9wLWNvbG9yPSIjOTAxM2ZlIi8+PHN0b3Agb2Zmc2V0PSIxIiBzdG9wLWNvbG9yPSIjNjYxMGYyIi8+PC9saW5lYXJHcmFkaWVudD48bGluZWFyR3JhZGllbnQgZ3JhZGllbnRVbml0cz0idXNlclNwYWNlT25Vc2UiIGdyYWRpZW50VHJhbnNmb3JtPSJ0cmFuc2xhdGUoMCA1MikiIHkyPSIyNzguODciIHkxPSIxMDkuNzQiIHgyPSIyOTMuNTEiIHgxPSIxOTMuNTEiIGlkPSJib290c3RyYXAtb3JpZ2luYWwtYiI+PHN0b3Agb2Zmc2V0PSIwIiBzdG9wLWNvbG9yPSIjZmZmIi8+PHN0b3Agb2Zmc2V0PSIxIiBzdG9wLWNvbG9yPSIjZjFlNWZjIi8+PC9saW5lYXJHcmFkaWVudD48ZmlsdGVyIGZpbHRlclVuaXRzPSJ1c2VyU3BhY2VPblVzZSIgY29sb3ItaW50ZXJwb2xhdGlvbi1maWx0ZXJzPSJzUkdCIiBoZWlnaHQ9IjI0OSIgd2lkdGg9IjE5NyIgeT0iMTM1LjQ2IiB4PSIxNjEuOSIgaWQ9ImJvb3RzdHJhcC1vcmlnaW5hbC1jIj48ZmVGbG9vZCByZXN1bHQ9IkJhY2tncm91bmRJbWFnZUZpeCIgZmxvb2Qtb3BhY2l0eT0iMCIvPjxmZUNvbG9yTWF0cml4IHZhbHVlcz0iMCAwIDAgMCAwIDAgMCAwIDAgMCAwIDAgMCAwIDAgMCAwIDAgMTI3IDAiIGluPSJTb3VyY2VBbHBoYSIvPjxmZU9mZnNldCBkeT0iNCIvPjxmZUdhdXNzaWFuQmx1ciBzdGREZXZpYXRpb249IjgiLz48ZmVDb2xvck1hdHJpeCB2YWx1ZXM9IjAgMCAwIDAgMCAwIDAgMCAwIDAgMCAwIDAgMCAwIDAgMCAwIDAuMTUgMCIvPjxmZUJsZW5kIHJlc3VsdD0iZWZmZWN0MV9kcm9wU2hhZG93IiBpbjI9IkJhY2tncm91bmRJbWFnZUZpeCIvPjxmZUJsZW5kIHJlc3VsdD0ic2hhcGUiIGluMj0iZWZmZWN0MV9kcm9wU2hhZG93IiBpbj0iU291cmNlR3JhcGhpYyIvPjwvZmlsdGVyPjwvZGVmcz48cGF0aCBmaWxsPSJ1cmwoI2Jvb3RzdHJhcC1vcmlnaW5hbC1hKSIgZD0iTTE0Ljk4NSAyNy43MTJjLS4yMzctNi44MTUgNS4wNzItMTMuMDk5IDEyLjI0OS0xMy4wOTloNzMuNTRjNy4xNzcgMCAxMi40ODYgNi4yODQgMTIuMjQ5IDEzLjA5OS0uMjI4IDYuNTQ2LjA2OCAxNS4wMjYgMi4yMDIgMjEuOTQgMi4xNDEgNi45MzYgNS43NTEgMTEuMzE5IDExLjY2NCAxMS44ODN2Ni4zODdjLTUuOTEzLjU2NC05LjUyMyA0Ljk0Ny0xMS42NjQgMTEuODgzLTIuMTM0IDYuOTE0LTIuNDMgMTUuMzk0LTIuMjAyIDIxLjk0LjIzNyA2LjgxNS01LjA3MiAxMy4wOTgtMTIuMjQ5IDEzLjA5OGgtNzMuNTRjLTcuMTc3IDAtMTIuNDg2LTYuMjg0LTEyLjI0OS0xMy4wOTguMjI4LTYuNTQ2LS4wNjgtMTUuMDI2LTIuMjAzLTIxLjk0LTIuMTQtNi45MzUtNS43Ni0xMS4zMTktMTEuNjczLTExLjg4M3YtNi4zODdjNS45MTMtLjU2MyA5LjUzMy00Ljk0NyAxMS42NzMtMTEuODgzIDIuMTM1LTYuOTE0IDIuNDMtMTUuMzk0IDIuMjAzLTIxLjk0eiIvPjxwYXRoIHN0cm9rZT0iI2ZmZiIgZmlsdGVyPSJ1cmwoI2Jvb3RzdHJhcC1vcmlnaW5hbC1jKSIgZmlsbD0idXJsKCNib290c3RyYXAtb3JpZ2luYWwtYikiIGQ9Ik0yNjcuMSAzNjQuNDZjNDcuMjk3IDAgNzUuNzk4LTIzLjE1OCA3NS43OTgtNjEuMzU1IDAtMjguODczLTIwLjMzNi00OS43NzYtNTAuNTMyLTUzLjA4NXYtMS4yMDNjMjIuMTg1LTMuNjA5IDM5LjU5NC0yNC4yMTEgMzkuNTk0LTQ3LjIxOSAwLTMyLjc4My0yNS44ODItNTQuMTM4LTY1LjMyMi01NC4xMzhoLTg4Ljc0djIxN3ptLTU0LjY5Mi0xODkuNDhoNDUuOTExYzI0Ljk1OCAwIDM5LjEzMSAxMS4xMjggMzkuMTMxIDMxLjI3OSAwIDIxLjUwNS0xNi40ODQgMzMuNTM1LTQ2LjM3MiAzMy41MzVoLTM4LjY3em0wIDE2MS45NnYtNzEuNDMxaDQ1LjYwMmMzMi42NjEgMCA0OS42MDggMTIuMDMgNDkuNjA4IDM1LjQ5IDAgMjMuNDU5LTE2LjQ4NCAzNS45NDEtNDcuNjA1IDM1Ljk0MXoiIHRyYW5zZm9ybT0idHJhbnNsYXRlKDEuNDk0IDIuMjAzKSBzY2FsZSguMjQ1NjYpIi8+PC9zdmc+;" vertex="1" parent="1">
                    <mxGeometry x="188" y="440" width="64" height="64" as="geometry"/>
                </mxCell>
                <mxCell id="74" value="jquery" style="shape=image;verticalLabelPosition=bottom;labelBackgroundColor=default;verticalAlign=top;aspect=fixed;imageAspect=0;image=data:image/svg+xml,PHN2ZyB4bWxucz0iaHR0cDovL3d3dy53My5vcmcvMjAwMC9zdmciIHZpZXdCb3g9IjAgMCAxMjggMTI4Ij48cGF0aCBkPSJNOS42MjUgMzIuMTgxQy0xLjQwNCA0OC4wMzItLjAzMSA2OC42NTcgOC4zOTQgODUuNTAxYy4yLjQwNC40MS44MDEuNjE3IDEuMTk4bC4zOTQuNzU5LjI0Ni40MzcuNDM5Ljc4NmMuMjYyLjQ2MS41My45Mi44MDQgMS4zNzlsLjQ1OS43NTZjLjMwNC40OTEuNjE1Ljk3Ni45MzMgMS40NmwuMzk4LjYxNGMuNDM5LjY1NS44ODggMS4zMDkgMS4zNTIgMS45NTFsLjAzOS4wNS4yMjguMzA4Yy40MDEuNTUzLjgxNCAxLjA5OSAxLjIzMiAxLjYzOWwuNDY0LjU5Yy4zNzMuNDY5Ljc1Mi45MzUgMS4xMzggMS4zOTlsLjQzNS41MmE3NS4yNyA3NS4yNyAwIDAwMS41ODYgMS44MTJsLjAzMy4wMzMuMDYxLjA2OGE4MC40NCA4MC40NCAwIDAwMS42MTIgMS42OTlsLjUxNy41MjFjLjQyMy40MjYuODUzLjg0NSAxLjI4NyAxLjI2MmwuNTI3LjVjLjU4LjU0NyAxLjE2NiAxLjA4MyAxLjc2NCAxLjYwN2wuMDI4LjAyMi4zMDcuMjYyYy41MjcuNDU2IDEuMDYzLjkwOSAxLjYwMyAxLjM1M2wuNjY0LjUyOWMuNDQxLjM1NC44ODcuNzAyIDEuMzM2IDEuMDQ0bC43MTQuNTQzYy40OTYuMzY1Ljk5NS43MjQgMS40OTkgMS4wNzVsLjU0Ni4zODcuMTUuMTA3Yy40NzguMzI5Ljk2Ny42NDYgMS40NTYuOTYzbC42My40MmMuNzUuNDc0IDEuNTEuOTQzIDIuMjc5IDEuMzk2bC42My4zNTVjLjU2NS4zMjYgMS4xMzQuNjQ2IDEuNzEuOTU5LjMxMi4xNjguNjMyLjMyNy45NDYuNDg4LjQwNy4yMTMuODExLjQyOSAxLjIyNS42MzZsLjI4My4xMzcuNTAxLjI0MmMuNjQxLjMwNiAxLjI4Ny42MDcgMS45NC44OTdsLjQxLjE4NGE2Ni45MiA2Ni45MiAwIDAwMi4yNjMuOTQxbC41NTEuMjE3Yy43MDQuMjcxIDEuNDE4LjUzOSAyLjEzNS43OTFsLjI2OC4wOTNjLjc4Ny4yNzUgMS41ODEuNTMgMi4zODEuNzc5bC41NzUuMTcyYy44MTQuMjQ1IDEuNjE5LjUzOCAyLjQ1OC42OTMgNTMuMzM5IDkuNzI3IDY4LjgzMy0zMi4wNTMgNjguODMzLTMyLjA1My0xMy4wMTMgMTYuOTUzLTM2LjExMSAyMS40MjUtNTcuOTk2IDE2LjQ0Ni0uODI5LS4xODctMS42MzMtLjQ0Ni0yLjQ0Mi0uNjg1bC0uNjA5LS4xODVhNzIuNDk4IDcyLjQ5OCAwIDAxLTIuMzUyLS43NjVsLS4zMjMtLjExN2E3Mi4yNDUgNzIuMjQ1IDAgMDEtMi4wNzQtLjc2OWwtLjU4Mi0uMjI5Yy0uNzUyLS4yOTctMS41LS42MDctMi4yMzktLjkzMWwtLjQ0Ny0uMTk4YTkyLjg1NyA5Mi44NTcgMCAwMS0xLjg4OS0uODc5bC0uNTQ2LS4yNjJjLS40OTEtLjIzOS0uOTc3LS40OTMtMS40NjEtLjc0My0uMzI0LS4xNzEtLjY1NC0uMzMyLS45NzUtLjUxYTU4LjU5MSA1OC41OTEgMCAwMS0xLjc1MS0uOTgybC0uNTkxLS4zM2E4MS4yMjEgODEuMjIxIDAgMDEtMi4yOC0xLjM5N2wtLjYxNS0uNDFhNTkuMjgzIDU5LjI4MyAwIDAxLTEuNjIzLTEuMDc5bC0uNTIyLS4zNjdhODkuMjg3IDg5LjI4NyAwIDAxLTEuNTM0LTEuMTA5bC0uNjc5LS41MTRhNjQuNDczIDY0LjQ3MyAwIDAxLTEuMzg0LTEuMDgybC0uNjE3LS40OTVhODIuNjkzIDgyLjY5MyAwIDAxLTEuNzI0LTEuNDUzbC0uMTg5LS4xNTlhODMuNDY2IDgzLjQ2NiAwIDAxLTEuODEyLTEuNjQ3bC0uNTExLS40OTFjLS40NDEtLjQyLS44NzUtLjg0My0xLjMwMi0xLjI3N2wtLjUxLS41MDlhNzAuNTQxIDcwLjU0MSAwIDAxLTEuNTk4LTEuNjlsLS4wNzktLjA4NGE2Ny4zOSA2Ny4zOSAwIDAxLTEuNjIxLTEuODQ0bC0uNDI0LS41MDRhNzAuNjAyIDcwLjYwMiAwIDAxLTEuMTY3LTEuNDQybC0uNDI3LS41MzJhNzguNDA2IDc4LjQwNiAwIDAxLTEuMzQ3LTEuNzk0Yy0xMi4xNS0xNi41NzQtMTYuNTE2LTM5LjQzMi02LjgwNS01OC4yMDRtMjUuNjI5LTIuNDM0Yy03Ljk3NyAxMS40NzgtNy41NDMgMjYuODQ0LTEuMzIxIDM4Ljk4M2E1MC41ODEgNTAuNTgxIDAgMDAzLjUyOCA1Ljg4OWMxLjE5NSAxLjcxMyAyLjUyIDMuNzUxIDQuMTA2IDUuMTI3YTQ4LjExMSA0OC4xMTEgMCAwMDEuNzkgMS44NThsLjQ3Mi40NjVhNTEuNjkgNTEuNjkgMCAwMDEuODI4IDEuNjk4bC4wNzQuMDY0LjAxOC4wMThhNTUuMjY4IDU1LjI2OCAwIDAwMi4xMzUgMS43NjdsLjQ4NS4zNzhhNTQuMDggNTQuMDggMCAwMDIuMjMzIDEuNjMxbC4wNjUuMDQ5Yy4zMzYuMjMyLjY3OC40NDggMS4wMTkuNjcybC40ODMuMzE5Yy41NDQuMzQ5IDEuMDk1LjY4OSAxLjY1NSAxLjAxNWwuMjM1LjEzNmMuNDgzLjI3OC45NzIuNTUyIDEuNDYzLjgxOGwuNTIxLjI3MWMuMzM5LjE3Ny42NzguMzU4IDEuMDIzLjUzbC4xNTUuMDdjLjcwMy4zNDYgMS40MTIuNjggMi4xMzYuOTk1bC40NzIuMTk0Yy41NzkuMjQ2IDEuMTY0LjQ4NiAxLjc1LjcxbC43NS4yNzVjLjUzMy4xOTggMS4wNjguMzc4IDEuNjA3LjU1OWwuNzI3LjIzM2MuNzY3LjIzOCAxLjUyNS41MzkgMi4zMjQuNjcyIDQxLjE4MyA2LjgyMyA1MC42OTEtMjQuODg2IDUwLjY5MS0yNC44ODYtOC41NyAxMi4zNDMtMjUuMTY4IDE4LjIzMy00Mi44NzkgMTMuNjM1YTUwLjM3NiA1MC4zNzYgMCAwMS0yLjMzMy0uNjc0bC0uNzAxLS4yMjdhNDUuNDIzIDQ1LjQyMyAwIDAxLTEuNjMxLS41NjJsLS43MzYtLjI3NGE1Ni40MTggNTYuNDE4IDAgMDEtMS43NTYtLjcwOGwtLjQ3My0uMmE0Ny43MjggNDcuNzI4IDAgMDEtMi4xNDgtLjk5OWMtLjM2My0uMTc3LS43Mi0uMzY0LTEuMDc4LS41NDhsLS42MjItLjMyYTQ0LjUwMiA0NC41MDIgMCAwMS0xLjM2My0uNzdsLS4zMjYtLjE4NWE0Ny44NDQgNDcuODQ0IDAgMDEtMS42NTEtMS4wMDhsLS40OTgtLjMzMmE2MS43NTkgNjEuNzU5IDAgMDEtMS4wNjktLjcwNyA1Ny40NTYgNTcuNDU2IDAgMDEtMi4yMjYtMS42MjhsLS41MDEtLjM5NWMtNy43NTItNi4xMi0xMy44OTgtMTQuNDg2LTE2LjgxOS0yMy45NzEtMy4wNjItOS44MzYtMi40MDItMjAuODc4IDIuOTAzLTI5Ljg0bTIyLjI3OC0uNzc1Yy00LjcwMiA2LjkyLTUuMTY0IDE1LjUxNC0xLjkwMSAyMy4xNTYgMy40NDEgOC4xMTMgMTAuNDkxIDE0LjQ3NiAxOC43MiAxNy40OTUuMzM5LjEyNS42NzkuMjM3IDEuMDIyLjM1NGwuNDUxLjE0M2MuNDg1LjE1Mi45NjYuMzI5IDEuNDY3LjQyNCAyMi43NCA0LjM5NCAyOC45MDgtMTEuNjY5IDMwLjU0OS0xNC4wMzQtNS40MDIgNy43NzktMTQuNDgyIDkuNjQ2LTI1LjYyMyA2Ljk0Mi0uODgtLjIxMy0xLjg0Ny0uNTMxLTIuNjk1LS44MzJhMzMuMjQyIDMzLjI0MiAwIDAxLTMuMjAxLTEuMzI5IDMzLjIxNSAzMy4yMTUgMCAwMS01LjYxMi0zLjQyNGMtOS45NjktNy41NjUtMTYuMTYyLTIxLjk5NC05LjY1Ny0zMy43NDUiIGZpbGw9IiMwODY4QUMiLz48L3N2Zz4=;" vertex="1" parent="1">
                    <mxGeometry x="188" y="640" width="64" height="64" as="geometry"/>
                </mxCell>
                <mxCell id="75" value="typescript" style="shape=image;verticalLabelPosition=bottom;labelBackgroundColor=default;verticalAlign=top;aspect=fixed;imageAspect=0;image=data:image/svg+xml,PHN2ZyB4bWxucz0iaHR0cDovL3d3dy53My5vcmcvMjAwMC9zdmciIHZpZXdCb3g9IjAgMCAxMjggMTI4Ij48cGF0aCBkPSJNMjIuNjcgNDdoOTkuNjd2NzMuNjdIMjIuNjd6IiBmaWxsPSIjZmZmIi8+PHBhdGggZD0iTTEuNSA2My45MXY2Mi41aDEyNXYtMTI1SDEuNXptMTAwLjczLTVhMTUuNTYgMTUuNTYgMCAwMTcuODIgNC41IDIwLjU4IDIwLjU4IDAgMDEzIDRjMCAuMTYtNS40IDMuODEtOC42OSA1Ljg1LS4xMi4wOC0uNi0uNDQtMS4xMy0xLjIzYTcuMDkgNy4wOSAwIDAwLTUuODctMy41M2MtMy43OS0uMjYtNi4yMyAxLjczLTYuMjEgNWE0LjU4IDQuNTggMCAwMC41NCAyLjM0Yy44MyAxLjczIDIuMzggMi43NiA3LjI0IDQuODYgOC45NSAzLjg1IDEyLjc4IDYuMzkgMTUuMTYgMTAgMi42NiA0IDMuMjUgMTAuNDYgMS40NSAxNS4yNC0yIDUuMi02LjkgOC43My0xMy44MyA5LjlhMzguMzIgMzguMzIgMCAwMS05LjUyLS4xIDIzIDIzIDAgMDEtMTIuNzItNi42M2MtMS4xNS0xLjI3LTMuMzktNC41OC0zLjI1LTQuODJhOS4zNCA5LjM0IDAgMDExLjE1LS43M0w4MiAxMDFsMy41OS0yLjA4Ljc1IDEuMTFhMTYuNzggMTYuNzggMCAwMDQuNzQgNC41NGM0IDIuMSA5LjQ2IDEuODEgMTIuMTYtLjYyYTUuNDMgNS40MyAwIDAwLjY5LTYuOTJjLTEtMS4zOS0zLTIuNTYtOC41OS01LTYuNDUtMi43OC05LjIzLTQuNS0xMS43Ny03LjI0YTE2LjQ4IDE2LjQ4IDAgMDEtMy40My02LjI1IDI1IDI1IDAgMDEtLjIyLThjMS4zMy02LjIzIDYtMTAuNTggMTIuODItMTEuODdhMzEuNjYgMzEuNjYgMCAwMTkuNDkuMjZ6bS0yOS4zNCA1LjI0djUuMTJINTYuNjZ2NDYuMjNINDUuMTVWNjkuMjZIMjguODh2LTVhNDkuMTkgNDkuMTkgMCAwMS4xMi01LjE3QzI5LjA4IDU5IDM5IDU5IDUxIDU5aDIxLjgzeiIgZmlsbD0iIzAwN2FjYyIgZGF0YS1uYW1lPSJvcmlnaW5hbCIvPjwvc3ZnPg==;" vertex="1" parent="1">
                    <mxGeometry x="188" y="740" width="64" height="64" as="geometry"/>
                </mxCell>
            </root>
        </mxGraphModel>
    </diagram>
</mxfile>